<?xml version="1.0" encoding="UTF-8"?>
<svg xmlns="http://www.w3.org/2000/svg" xmlns:xlink="http://www.w3.org/1999/xlink" width="24px" height="24px" viewBox="0 0 24 24" version="1.1">
<g id="surface1">
<path style=" stroke:none;fill-rule:nonzero;fill:rgb(25.098041%,87.843138%,81.568629%);fill-opacity:1;" d="M 15.164062 17.800781 L 13.21875 17.800781 L 13.195312 17.777344 L 13.125 17.777344 L 13.101562 17.753906 L 13.078125 17.753906 L 13.054688 17.730469 L 13.03125 17.730469 L 12.984375 17.683594 L 12.960938 17.683594 L 12.902344 17.625 L 12.902344 17.601562 L 12.855469 17.554688 L 12.855469 17.53125 L 12.832031 17.507812 L 12.832031 17.460938 L 12.808594 17.4375 L 12.808594 16.664062 L 12.832031 16.640625 L 12.832031 16.617188 L 12.855469 16.59375 L 12.855469 16.570312 L 12.878906 16.546875 L 12.878906 16.523438 L 12.984375 16.417969 L 13.007812 16.417969 L 13.03125 16.394531 L 13.054688 16.394531 L 13.078125 16.371094 L 13.171875 16.371094 L 13.195312 16.347656 L 14.554688 16.347656 L 14.578125 16.324219 L 14.648438 16.324219 L 14.671875 16.300781 L 14.71875 16.300781 L 14.742188 16.277344 L 14.765625 16.277344 L 14.8125 16.230469 L 14.835938 16.230469 L 14.988281 16.078125 L 14.988281 16.054688 L 15.035156 16.007812 L 15.035156 15.984375 L 15.058594 15.960938 L 15.058594 15.9375 L 15.105469 15.890625 L 15.105469 15.867188 L 15.128906 15.84375 L 15.128906 15.820312 L 15.175781 15.773438 L 15.175781 15.75 L 15.199219 15.726562 L 15.199219 15.703125 L 15.246094 15.65625 L 15.246094 15.632812 L 15.269531 15.609375 L 15.269531 15.585938 L 15.316406 15.539062 L 15.316406 15.515625 L 15.339844 15.492188 L 15.339844 15.46875 L 15.386719 15.421875 L 15.386719 15.398438 L 15.410156 15.375 L 15.410156 15.351562 L 15.457031 15.304688 L 15.457031 15.28125 L 15.503906 15.234375 L 15.503906 15.210938 L 15.527344 15.1875 L 15.527344 15.164062 L 15.574219 15.117188 L 15.574219 15.09375 L 15.597656 15.070312 L 15.597656 15.046875 L 15.621094 15.023438 L 15.621094 15 L 15.667969 14.953125 L 15.667969 14.929688 L 15.714844 14.882812 L 15.714844 14.859375 L 15.738281 14.835938 L 15.738281 14.8125 L 15.785156 14.765625 L 15.785156 14.742188 L 15.808594 14.71875 L 15.808594 14.695312 L 15.855469 14.648438 L 15.855469 14.625 L 15.902344 14.578125 L 15.902344 14.554688 L 15.925781 14.53125 L 15.925781 14.507812 L 15.972656 14.460938 L 15.972656 14.4375 L 15.996094 14.414062 L 15.996094 14.390625 L 16.042969 14.34375 L 16.042969 14.320312 L 16.066406 14.296875 L 16.066406 14.273438 L 16.113281 14.226562 L 16.113281 14.203125 L 16.160156 14.15625 L 16.160156 14.132812 L 16.183594 14.109375 L 16.183594 14.085938 L 16.230469 14.039062 L 16.230469 14.015625 L 16.253906 13.992188 L 16.253906 13.96875 L 16.300781 13.921875 L 16.300781 13.898438 L 16.324219 13.875 L 16.324219 13.851562 L 16.371094 13.804688 L 16.371094 13.78125 L 16.394531 13.757812 L 16.394531 13.734375 L 16.441406 13.6875 L 16.441406 13.664062 L 16.464844 13.640625 L 16.464844 13.617188 L 16.511719 13.570312 L 16.511719 13.546875 L 16.558594 13.5 L 16.558594 13.476562 L 16.582031 13.453125 L 16.582031 13.429688 L 16.628906 13.382812 L 16.628906 13.359375 L 16.652344 13.335938 L 16.652344 13.3125 L 16.699219 13.265625 L 16.699219 13.242188 L 16.722656 13.21875 L 16.722656 13.195312 L 16.769531 13.148438 L 16.769531 13.125 L 16.792969 13.101562 L 16.792969 13.078125 L 16.839844 13.03125 L 16.839844 13.007812 L 16.863281 12.984375 L 16.863281 12.960938 L 16.910156 12.914062 L 16.910156 12.890625 L 16.957031 12.84375 L 16.957031 12.820312 L 16.980469 12.796875 L 16.980469 12.773438 L 17.027344 12.726562 L 17.027344 12.703125 L 17.050781 12.679688 L 17.050781 12.65625 L 17.097656 12.609375 L 17.097656 12.585938 L 17.121094 12.5625 L 17.121094 12.539062 L 17.167969 12.492188 L 17.167969 12.46875 L 17.214844 12.421875 L 17.214844 12.398438 L 17.238281 12.375 L 17.238281 12.351562 L 17.285156 12.304688 L 17.285156 12.257812 L 17.308594 12.234375 L 17.308594 12.210938 L 17.332031 12.1875 L 17.332031 12.117188 L 17.355469 12.09375 L 17.355469 11.859375 L 17.332031 11.835938 L 17.332031 11.765625 L 17.308594 11.742188 L 17.308594 11.71875 L 17.285156 11.695312 L 17.285156 11.671875 L 17.261719 11.648438 L 17.261719 11.625 L 17.238281 11.601562 L 17.238281 11.578125 L 17.214844 11.554688 L 17.214844 11.53125 L 17.167969 11.484375 L 17.167969 11.460938 L 17.144531 11.4375 L 17.144531 11.414062 L 17.097656 11.367188 L 17.097656 11.34375 L 17.074219 11.320312 L 17.074219 11.296875 L 17.027344 11.25 L 17.027344 11.226562 L 16.980469 11.179688 L 16.980469 11.15625 L 16.957031 11.132812 L 16.957031 11.109375 L 16.910156 11.0625 L 16.910156 11.039062 L 16.886719 11.015625 L 16.886719 10.992188 L 16.839844 10.945312 L 16.839844 10.921875 L 16.816406 10.898438 L 16.816406 10.875 L 16.769531 10.828125 L 16.769531 10.804688 L 16.746094 10.78125 L 16.746094 10.757812 L 16.699219 10.710938 L 16.699219 10.6875 L 16.675781 10.664062 L 16.675781 10.640625 L 16.628906 10.59375 L 16.628906 10.570312 L 16.605469 10.546875 L 16.605469 10.523438 L 16.558594 10.476562 L 16.558594 10.453125 L 16.535156 10.429688 L 16.535156 10.40625 L 16.488281 10.359375 L 16.488281 10.335938 L 16.464844 10.3125 L 16.464844 10.289062 L 16.417969 10.242188 L 16.417969 10.21875 L 16.371094 10.171875 L 16.371094 10.148438 L 16.347656 10.125 L 16.347656 10.101562 L 16.300781 10.054688 L 16.300781 10.03125 L 16.253906 9.984375 L 16.253906 9.960938 L 16.230469 9.9375 L 16.230469 9.914062 L 16.183594 9.867188 L 16.183594 9.84375 L 16.160156 9.820312 L 16.160156 9.796875 L 16.113281 9.75 L 16.113281 9.726562 L 16.089844 9.703125 L 16.089844 9.679688 L 16.042969 9.632812 L 16.042969 9.609375 L 16.019531 9.585938 L 16.019531 9.5625 L 15.972656 9.515625 L 15.972656 9.492188 L 15.925781 9.445312 L 15.925781 9.421875 L 15.902344 9.398438 L 15.902344 9.375 L 15.878906 9.351562 L 15.878906 9.328125 L 15.832031 9.28125 L 15.832031 9.257812 L 15.785156 9.210938 L 15.785156 9.1875 L 15.761719 9.164062 L 15.761719 9.140625 L 15.714844 9.09375 L 15.714844 9.070312 L 15.691406 9.046875 L 15.691406 9.023438 L 15.644531 8.976562 L 15.644531 8.953125 L 15.621094 8.929688 L 15.621094 8.90625 L 15.574219 8.859375 L 15.574219 8.835938 L 15.550781 8.8125 L 15.550781 8.789062 L 15.503906 8.742188 L 15.503906 8.71875 L 15.480469 8.695312 L 15.480469 8.671875 L 15.433594 8.625 L 15.433594 8.601562 L 15.386719 8.554688 L 15.386719 8.53125 L 15.363281 8.507812 L 15.363281 8.484375 L 15.316406 8.4375 L 15.316406 8.414062 L 15.292969 8.390625 L 15.292969 8.367188 L 15.246094 8.320312 L 15.246094 8.296875 L 15.222656 8.273438 L 15.222656 8.25 L 15.175781 8.203125 L 15.175781 8.179688 L 15.128906 8.132812 L 15.128906 8.109375 L 15.105469 8.085938 L 15.105469 8.0625 L 15.058594 8.015625 L 15.058594 7.992188 L 15.035156 7.96875 L 15.035156 7.945312 L 15.011719 7.921875 L 15.011719 7.898438 L 14.964844 7.851562 L 14.964844 7.828125 L 14.917969 7.78125 L 14.917969 7.757812 L 14.847656 7.6875 L 14.847656 7.664062 L 14.835938 7.652344 L 14.8125 7.652344 L 14.71875 7.558594 L 14.695312 7.558594 L 14.671875 7.535156 L 14.625 7.535156 L 14.601562 7.511719 L 14.554688 7.511719 L 14.53125 7.488281 L 14.414062 7.488281 L 14.390625 7.464844 L 14.179688 7.464844 L 14.15625 7.488281 L 14.0625 7.488281 L 14.039062 7.511719 L 13.992188 7.511719 L 13.96875 7.535156 L 13.945312 7.535156 L 13.921875 7.558594 L 13.898438 7.558594 L 13.769531 7.6875 L 13.769531 7.710938 L 13.722656 7.757812 L 13.722656 7.78125 L 13.699219 7.804688 L 13.699219 7.851562 L 13.675781 7.875 L 13.675781 7.921875 L 13.652344 7.945312 L 13.652344 8.015625 L 13.628906 8.039062 L 13.628906 8.085938 L 13.605469 8.109375 L 13.605469 8.179688 L 13.582031 8.203125 L 13.582031 8.25 L 13.558594 8.273438 L 13.558594 8.34375 L 13.535156 8.367188 L 13.535156 8.414062 L 13.511719 8.4375 L 13.511719 8.507812 L 13.488281 8.53125 L 13.488281 8.578125 L 13.464844 8.601562 L 13.464844 8.648438 L 13.441406 8.671875 L 13.441406 8.742188 L 13.417969 8.765625 L 13.417969 8.835938 L 13.394531 8.859375 L 13.394531 8.90625 L 13.371094 8.929688 L 13.371094 9 L 13.347656 9.023438 L 13.347656 9.070312 L 13.324219 9.09375 L 13.324219 9.164062 L 13.300781 9.1875 L 13.300781 9.234375 L 13.277344 9.257812 L 13.277344 9.304688 L 13.253906 9.328125 L 13.253906 9.398438 L 13.230469 9.421875 L 13.230469 9.492188 L 13.207031 9.515625 L 13.207031 9.5625 L 13.183594 9.585938 L 13.183594 9.65625 L 13.160156 9.679688 L 13.160156 9.726562 L 13.136719 9.75 L 13.136719 9.796875 L 13.113281 9.820312 L 13.113281 9.890625 L 13.089844 9.914062 L 13.089844 9.984375 L 13.066406 10.007812 L 13.066406 10.054688 L 13.042969 10.078125 L 13.042969 10.148438 L 13.019531 10.171875 L 13.019531 10.21875 L 12.996094 10.242188 L 12.996094 10.3125 L 12.972656 10.335938 L 12.972656 10.382812 L 12.949219 10.40625 L 12.949219 10.476562 L 12.925781 10.5 L 12.925781 10.570312 L 12.902344 10.59375 L 12.902344 10.640625 L 12.878906 10.664062 L 12.878906 10.710938 L 12.855469 10.734375 L 12.855469 10.804688 L 12.832031 10.828125 L 12.832031 10.875 L 12.808594 10.898438 L 12.808594 10.96875 L 12.785156 10.992188 L 12.785156 11.0625 L 12.761719 11.085938 L 12.761719 11.132812 L 12.738281 11.15625 L 12.738281 11.226562 L 12.714844 11.25 L 12.714844 11.296875 L 12.691406 11.320312 L 12.691406 11.390625 L 12.667969 11.414062 L 12.667969 11.484375 L 12.644531 11.507812 L 12.644531 11.554688 L 12.621094 11.578125 L 12.621094 11.648438 L 12.597656 11.671875 L 12.597656 11.71875 L 12.574219 11.742188 L 12.574219 11.8125 L 12.550781 11.835938 L 12.550781 11.90625 L 12.527344 11.929688 L 12.527344 11.976562 L 12.503906 12 L 12.503906 12.070312 L 12.480469 12.09375 L 12.480469 12.140625 L 12.457031 12.164062 L 12.457031 12.234375 L 12.433594 12.257812 L 12.433594 12.304688 L 12.410156 12.328125 L 12.410156 12.398438 L 12.386719 12.421875 L 12.386719 12.492188 L 12.363281 12.515625 L 12.363281 12.5625 L 12.339844 12.585938 L 12.339844 12.65625 L 12.316406 12.679688 L 12.316406 12.726562 L 12.292969 12.75 L 12.292969 12.820312 L 12.269531 12.84375 L 12.269531 12.914062 L 12.246094 12.9375 L 12.246094 12.984375 L 12.222656 13.007812 L 12.222656 13.054688 L 12.199219 13.078125 L 12.199219 13.148438 L 12.175781 13.171875 L 12.175781 13.21875 L 12.152344 13.242188 L 12.152344 13.3125 L 12.128906 13.335938 L 12.128906 13.40625 L 12.105469 13.429688 L 12.105469 13.476562 L 12.082031 13.5 L 12.082031 13.570312 L 12.058594 13.59375 L 12.058594 13.664062 L 12.035156 13.6875 L 12.035156 13.734375 L 12.011719 13.757812 L 12.011719 13.828125 L 11.988281 13.851562 L 11.988281 13.898438 L 11.964844 13.921875 L 11.964844 13.992188 L 11.941406 14.015625 L 11.941406 14.085938 L 11.917969 14.109375 L 11.917969 14.15625 L 11.894531 14.179688 L 11.894531 14.25 L 11.871094 14.273438 L 11.871094 14.320312 L 11.847656 14.34375 L 11.847656 14.414062 L 11.824219 14.4375 L 11.824219 14.484375 L 11.800781 14.507812 L 11.800781 14.578125 L 11.777344 14.601562 L 11.777344 14.648438 L 11.753906 14.671875 L 11.753906 14.742188 L 11.730469 14.765625 L 11.730469 14.8125 L 11.707031 14.835938 L 11.707031 14.90625 L 11.683594 14.929688 L 11.683594 15 L 11.660156 15.023438 L 11.660156 15.070312 L 11.636719 15.09375 L 11.636719 15.164062 L 11.613281 15.1875 L 11.613281 15.234375 L 11.589844 15.257812 L 11.589844 15.328125 L 11.566406 15.351562 L 11.566406 15.398438 L 11.542969 15.421875 L 11.542969 15.492188 L 11.519531 15.515625 L 11.519531 15.585938 L 11.496094 15.609375 L 11.496094 15.65625 L 11.472656 15.679688 L 11.472656 15.75 L 11.449219 15.773438 L 11.449219 15.820312 L 11.425781 15.84375 L 11.425781 15.914062 L 11.402344 15.9375 L 11.402344 15.984375 L 11.378906 16.007812 L 11.378906 16.078125 L 11.355469 16.101562 L 11.355469 16.148438 L 11.332031 16.171875 L 11.332031 16.242188 L 11.308594 16.265625 L 11.308594 16.3125 L 11.285156 16.335938 L 11.285156 16.40625 L 11.261719 16.429688 L 11.261719 16.5 L 11.238281 16.523438 L 11.238281 16.570312 L 11.214844 16.59375 L 11.214844 16.664062 L 11.191406 16.6875 L 11.191406 16.734375 L 11.167969 16.757812 L 11.167969 16.828125 L 11.144531 16.851562 L 11.144531 16.921875 L 11.121094 16.945312 L 11.121094 16.992188 L 11.097656 17.015625 L 11.097656 17.0625 L 11.074219 17.085938 L 11.074219 17.15625 L 11.050781 17.179688 L 11.050781 17.226562 L 11.027344 17.25 L 11.027344 17.296875 L 11.003906 17.320312 L 11.003906 17.34375 L 10.957031 17.390625 L 10.957031 17.414062 L 10.863281 17.507812 L 10.863281 17.53125 L 10.804688 17.589844 L 10.78125 17.589844 L 10.734375 17.636719 L 10.710938 17.636719 L 10.664062 17.683594 L 10.640625 17.683594 L 10.617188 17.707031 L 10.59375 17.707031 L 10.570312 17.730469 L 10.523438 17.730469 L 10.5 17.753906 L 10.453125 17.753906 L 10.429688 17.777344 L 10.335938 17.777344 L 10.3125 17.800781 L 8.835938 17.800781 L 8.8125 17.777344 L 8.695312 17.777344 L 8.671875 17.753906 L 8.625 17.753906 L 8.601562 17.730469 L 8.554688 17.730469 L 8.53125 17.707031 L 8.507812 17.707031 L 8.484375 17.683594 L 8.460938 17.683594 L 8.4375 17.660156 L 8.414062 17.660156 L 8.390625 17.636719 L 8.367188 17.636719 L 8.320312 17.589844 L 8.296875 17.589844 L 8.121094 17.414062 L 8.121094 17.390625 L 8.074219 17.34375 L 8.074219 17.320312 L 8.027344 17.273438 L 8.027344 17.25 L 8.003906 17.226562 L 8.003906 17.203125 L 7.957031 17.15625 L 7.957031 17.132812 L 7.910156 17.085938 L 7.910156 17.0625 L 7.886719 17.039062 L 7.886719 17.015625 L 7.839844 16.96875 L 7.839844 16.945312 L 7.792969 16.898438 L 7.792969 16.875 L 7.769531 16.851562 L 7.769531 16.828125 L 7.722656 16.78125 L 7.722656 16.757812 L 7.699219 16.734375 L 7.699219 16.710938 L 7.652344 16.664062 L 7.652344 16.640625 L 7.605469 16.59375 L 7.605469 16.570312 L 7.582031 16.546875 L 7.582031 16.523438 L 7.535156 16.476562 L 7.535156 16.453125 L 7.488281 16.40625 L 7.488281 16.382812 L 7.464844 16.359375 L 7.464844 16.335938 L 7.441406 16.3125 L 7.441406 16.289062 L 7.394531 16.242188 L 7.394531 16.21875 L 7.347656 16.171875 L 7.347656 16.148438 L 7.300781 16.101562 L 7.300781 16.078125 L 7.277344 16.054688 L 7.277344 16.03125 L 7.230469 15.984375 L 7.230469 15.960938 L 7.183594 15.914062 L 7.183594 15.890625 L 7.160156 15.867188 L 7.160156 15.84375 L 7.113281 15.796875 L 7.113281 15.773438 L 7.089844 15.75 L 7.089844 15.726562 L 7.042969 15.679688 L 7.042969 15.65625 L 6.996094 15.609375 L 6.996094 15.585938 L 6.972656 15.5625 L 6.972656 15.539062 L 6.925781 15.492188 L 6.925781 15.46875 L 6.902344 15.445312 L 6.902344 15.421875 L 6.855469 15.375 L 6.855469 15.351562 L 6.808594 15.304688 L 6.808594 15.28125 L 6.785156 15.257812 L 6.785156 15.234375 L 6.738281 15.1875 L 6.738281 15.164062 L 6.714844 15.140625 L 6.714844 15.117188 L 6.667969 15.070312 L 6.667969 15.046875 L 6.644531 15.023438 L 6.644531 15 L 6.597656 14.953125 L 6.597656 14.929688 L 6.550781 14.882812 L 6.550781 14.859375 L 6.527344 14.835938 L 6.527344 14.8125 L 6.480469 14.765625 L 6.480469 14.742188 L 6.433594 14.695312 L 6.433594 14.671875 L 6.410156 14.648438 L 6.410156 14.625 L 6.363281 14.578125 L 6.363281 14.554688 L 6.339844 14.53125 L 6.339844 14.507812 L 6.292969 14.460938 L 6.292969 14.4375 L 6.246094 14.390625 L 6.246094 14.367188 L 6.222656 14.34375 L 6.222656 14.320312 L 6.175781 14.273438 L 6.175781 14.25 L 6.128906 14.203125 L 6.128906 14.179688 L 6.105469 14.15625 L 6.105469 14.132812 L 6.058594 14.085938 L 6.058594 14.0625 L 6.011719 14.015625 L 6.011719 13.992188 L 5.988281 13.96875 L 5.988281 13.945312 L 5.941406 13.898438 L 5.941406 13.875 L 5.917969 13.851562 L 5.917969 13.828125 L 5.871094 13.78125 L 5.871094 13.757812 L 5.847656 13.734375 L 5.847656 13.710938 L 5.800781 13.664062 L 5.800781 13.640625 L 5.753906 13.59375 L 5.753906 13.570312 L 5.730469 13.546875 L 5.730469 13.523438 L 5.683594 13.476562 L 5.683594 13.453125 L 5.660156 13.429688 L 5.660156 13.40625 L 5.613281 13.359375 L 5.613281 13.335938 L 5.566406 13.289062 L 5.566406 13.265625 L 5.519531 13.21875 L 5.519531 13.195312 L 5.496094 13.171875 L 5.496094 13.148438 L 5.449219 13.101562 L 5.449219 13.078125 L 5.402344 13.03125 L 5.402344 13.007812 L 5.378906 12.984375 L 5.378906 12.960938 L 5.332031 12.914062 L 5.332031 12.890625 L 5.308594 12.867188 L 5.308594 12.84375 L 5.261719 12.796875 L 5.261719 12.773438 L 5.214844 12.726562 L 5.214844 12.703125 L 5.191406 12.679688 L 5.191406 12.65625 L 5.144531 12.609375 L 5.144531 12.585938 L 5.097656 12.539062 L 5.097656 12.515625 L 5.074219 12.492188 L 5.074219 12.46875 L 5.050781 12.445312 L 5.050781 12.421875 L 5.027344 12.398438 L 5.027344 12.375 L 5.003906 12.351562 L 5.003906 12.328125 L 4.980469 12.304688 L 4.980469 12.234375 L 4.957031 12.210938 L 4.957031 12.140625 L 4.933594 12.117188 L 4.933594 11.859375 L 4.957031 11.835938 L 4.957031 11.742188 L 4.980469 11.71875 L 4.980469 11.671875 L 5.003906 11.648438 L 5.003906 11.625 L 5.027344 11.601562 L 5.027344 11.578125 L 5.050781 11.554688 L 5.050781 11.53125 L 5.074219 11.507812 L 5.074219 11.484375 L 5.097656 11.460938 L 5.097656 11.4375 L 5.121094 11.414062 L 5.121094 11.390625 L 5.167969 11.34375 L 5.167969 11.320312 L 5.214844 11.273438 L 5.214844 11.25 L 5.261719 11.203125 L 5.261719 11.179688 L 5.285156 11.15625 L 5.285156 11.132812 L 5.332031 11.085938 L 5.332031 11.0625 L 5.355469 11.039062 L 5.355469 11.015625 L 5.402344 10.96875 L 5.402344 10.945312 L 5.425781 10.921875 L 5.425781 10.898438 L 5.472656 10.851562 L 5.472656 10.828125 L 5.519531 10.78125 L 5.519531 10.757812 L 5.542969 10.734375 L 5.542969 10.710938 L 5.589844 10.664062 L 5.589844 10.640625 L 5.613281 10.617188 L 5.613281 10.59375 L 5.660156 10.546875 L 5.660156 10.523438 L 5.707031 10.476562 L 5.707031 10.453125 L 5.730469 10.429688 L 5.730469 10.40625 L 5.777344 10.359375 L 5.777344 10.335938 L 5.800781 10.3125 L 5.800781 10.289062 L 5.847656 10.242188 L 5.847656 10.21875 L 5.894531 10.171875 L 5.894531 10.148438 L 5.917969 10.125 L 5.917969 10.101562 L 5.964844 10.054688 L 5.964844 10.03125 L 5.988281 10.007812 L 5.988281 9.984375 L 6.035156 9.9375 L 6.035156 9.914062 L 6.058594 9.890625 L 6.058594 9.867188 L 6.105469 9.820312 L 6.105469 9.796875 L 6.152344 9.75 L 6.152344 9.726562 L 6.175781 9.703125 L 6.175781 9.679688 L 6.222656 9.632812 L 6.222656 9.609375 L 6.269531 9.5625 L 6.269531 9.539062 L 6.292969 9.515625 L 6.292969 9.492188 L 6.316406 9.46875 L 6.316406 9.445312 L 6.363281 9.398438 L 6.363281 9.375 L 6.410156 9.328125 L 6.410156 9.304688 L 6.433594 9.28125 L 6.433594 9.257812 L 6.480469 9.210938 L 6.480469 9.1875 L 6.503906 9.164062 L 6.503906 9.140625 L 6.550781 9.09375 L 6.550781 9.070312 L 6.597656 9.023438 L 6.597656 9 L 6.621094 8.976562 L 6.621094 8.953125 L 6.667969 8.90625 L 6.667969 8.882812 L 6.691406 8.859375 L 6.691406 8.835938 L 6.738281 8.789062 L 6.738281 8.765625 L 6.761719 8.742188 L 6.761719 8.71875 L 6.808594 8.671875 L 6.808594 8.648438 L 6.832031 8.625 L 6.832031 8.601562 L 6.878906 8.554688 L 6.878906 8.53125 L 6.925781 8.484375 L 6.925781 8.460938 L 6.949219 8.4375 L 6.949219 8.414062 L 6.996094 8.367188 L 6.996094 8.34375 L 7.042969 8.296875 L 7.042969 8.273438 L 7.066406 8.25 L 7.066406 8.226562 L 7.113281 8.179688 L 7.113281 8.15625 L 7.136719 8.132812 L 7.136719 8.109375 L 7.183594 8.0625 L 7.183594 8.039062 L 7.207031 8.015625 L 7.207031 7.992188 L 7.253906 7.945312 L 7.253906 7.921875 L 7.300781 7.875 L 7.300781 7.851562 L 7.347656 7.804688 L 7.347656 7.78125 L 7.371094 7.757812 L 7.371094 7.734375 L 7.417969 7.6875 L 7.417969 7.664062 L 7.441406 7.640625 L 7.441406 7.617188 L 7.488281 7.570312 L 7.488281 7.546875 L 7.511719 7.523438 L 7.511719 7.5 L 7.558594 7.453125 L 7.558594 7.429688 L 7.605469 7.382812 L 7.605469 7.359375 L 7.628906 7.335938 L 7.628906 7.3125 L 7.675781 7.265625 L 7.675781 7.242188 L 7.699219 7.21875 L 7.699219 7.195312 L 7.746094 7.148438 L 7.746094 7.125 L 7.792969 7.078125 L 7.792969 7.054688 L 7.816406 7.03125 L 7.816406 7.007812 L 7.863281 6.960938 L 7.863281 6.9375 L 7.886719 6.914062 L 7.886719 6.890625 L 7.933594 6.84375 L 7.933594 6.820312 L 7.957031 6.796875 L 7.957031 6.773438 L 8.003906 6.726562 L 8.003906 6.703125 L 8.050781 6.65625 L 8.050781 6.632812 L 8.074219 6.609375 L 8.074219 6.585938 L 8.097656 6.5625 L 8.097656 6.539062 L 8.144531 6.492188 L 8.144531 6.46875 L 8.34375 6.269531 L 8.367188 6.269531 L 8.414062 6.222656 L 8.4375 6.222656 L 8.460938 6.199219 L 8.484375 6.199219 L 8.507812 6.175781 L 8.53125 6.175781 L 8.554688 6.152344 L 8.578125 6.152344 L 8.601562 6.128906 L 8.648438 6.128906 L 8.671875 6.105469 L 8.789062 6.105469 L 8.8125 6.082031 L 10.804688 6.082031 L 10.828125 6.105469 L 10.875 6.105469 L 10.898438 6.128906 L 10.921875 6.128906 L 10.945312 6.152344 L 10.96875 6.152344 L 11.097656 6.28125 L 11.097656 6.304688 L 11.121094 6.328125 L 11.121094 6.351562 L 11.144531 6.375 L 11.144531 6.46875 L 11.167969 6.492188 L 11.167969 6.515625 L 11.144531 6.539062 L 11.144531 7.21875 L 11.121094 7.242188 L 11.121094 7.265625 L 11.097656 7.289062 L 11.097656 7.3125 L 10.96875 7.441406 L 10.945312 7.441406 L 10.921875 7.464844 L 10.898438 7.464844 L 10.875 7.488281 L 9.445312 7.488281 L 9.421875 7.511719 L 9.375 7.511719 L 9.351562 7.535156 L 9.328125 7.535156 L 9.304688 7.558594 L 9.28125 7.558594 L 9.257812 7.582031 L 9.234375 7.582031 L 9.105469 7.710938 L 9.105469 7.734375 L 9.058594 7.78125 L 9.058594 7.804688 L 9.011719 7.851562 L 9.011719 7.875 L 8.988281 7.898438 L 8.988281 7.921875 L 8.964844 7.945312 L 8.964844 7.96875 L 8.917969 8.015625 L 8.917969 8.039062 L 8.894531 8.0625 L 8.894531 8.085938 L 8.847656 8.132812 L 8.847656 8.15625 L 8.824219 8.179688 L 8.824219 8.203125 L 8.777344 8.25 L 8.777344 8.273438 L 8.730469 8.320312 L 8.730469 8.34375 L 8.707031 8.367188 L 8.707031 8.390625 L 8.660156 8.4375 L 8.660156 8.460938 L 8.613281 8.507812 L 8.613281 8.53125 L 8.589844 8.554688 L 8.589844 8.578125 L 8.542969 8.625 L 8.542969 8.648438 L 8.519531 8.671875 L 8.519531 8.695312 L 8.472656 8.742188 L 8.472656 8.765625 L 8.449219 8.789062 L 8.449219 8.8125 L 8.402344 8.859375 L 8.402344 8.882812 L 8.355469 8.929688 L 8.355469 8.953125 L 8.332031 8.976562 L 8.332031 9 L 8.285156 9.046875 L 8.285156 9.070312 L 8.261719 9.09375 L 8.261719 9.117188 L 8.214844 9.164062 L 8.214844 9.1875 L 8.167969 9.234375 L 8.167969 9.257812 L 8.144531 9.28125 L 8.144531 9.304688 L 8.097656 9.351562 L 8.097656 9.375 L 8.074219 9.398438 L 8.074219 9.421875 L 8.027344 9.46875 L 8.027344 9.492188 L 8.003906 9.515625 L 8.003906 9.539062 L 7.957031 9.585938 L 7.957031 9.609375 L 7.910156 9.65625 L 7.910156 9.679688 L 7.886719 9.703125 L 7.886719 9.726562 L 7.839844 9.773438 L 7.839844 9.796875 L 7.816406 9.820312 L 7.816406 9.84375 L 7.769531 9.890625 L 7.769531 9.914062 L 7.746094 9.9375 L 7.746094 9.960938 L 7.699219 10.007812 L 7.699219 10.03125 L 7.675781 10.054688 L 7.675781 10.078125 L 7.628906 10.125 L 7.628906 10.148438 L 7.605469 10.171875 L 7.605469 10.195312 L 7.558594 10.242188 L 7.558594 10.265625 L 7.511719 10.3125 L 7.511719 10.335938 L 7.488281 10.359375 L 7.488281 10.382812 L 7.441406 10.429688 L 7.441406 10.453125 L 7.417969 10.476562 L 7.417969 10.5 L 7.371094 10.546875 L 7.371094 10.570312 L 7.347656 10.59375 L 7.347656 10.617188 L 7.300781 10.664062 L 7.300781 10.6875 L 7.277344 10.710938 L 7.277344 10.734375 L 7.230469 10.78125 L 7.230469 10.804688 L 7.183594 10.851562 L 7.183594 10.875 L 7.136719 10.921875 L 7.136719 10.945312 L 7.113281 10.96875 L 7.113281 10.992188 L 7.066406 11.039062 L 7.066406 11.0625 L 7.042969 11.085938 L 7.042969 11.109375 L 6.996094 11.15625 L 6.996094 11.179688 L 6.949219 11.226562 L 6.949219 11.25 L 6.925781 11.273438 L 6.925781 11.296875 L 6.878906 11.34375 L 6.878906 11.367188 L 6.855469 11.390625 L 6.855469 11.414062 L 6.808594 11.460938 L 6.808594 11.484375 L 6.761719 11.53125 L 6.761719 11.554688 L 6.738281 11.578125 L 6.738281 11.601562 L 6.691406 11.648438 L 6.691406 11.671875 L 6.667969 11.695312 L 6.667969 11.742188 L 6.644531 11.765625 L 6.644531 11.789062 L 6.621094 11.8125 L 6.621094 11.882812 L 6.597656 11.90625 L 6.597656 12.070312 L 6.621094 12.09375 L 6.621094 12.164062 L 6.644531 12.1875 L 6.644531 12.234375 L 6.667969 12.257812 L 6.667969 12.28125 L 6.691406 12.304688 L 6.691406 12.328125 L 6.714844 12.351562 L 6.714844 12.375 L 6.761719 12.421875 L 6.761719 12.445312 L 6.785156 12.46875 L 6.785156 12.492188 L 6.832031 12.539062 L 6.832031 12.5625 L 6.855469 12.585938 L 6.855469 12.609375 L 6.902344 12.65625 L 6.902344 12.679688 L 6.925781 12.703125 L 6.925781 12.726562 L 6.972656 12.773438 L 6.972656 12.796875 L 6.996094 12.820312 L 6.996094 12.84375 L 7.019531 12.867188 L 7.019531 12.890625 L 7.066406 12.9375 L 7.066406 12.960938 L 7.113281 13.007812 L 7.113281 13.03125 L 7.136719 13.054688 L 7.136719 13.078125 L 7.183594 13.125 L 7.183594 13.148438 L 7.207031 13.171875 L 7.207031 13.195312 L 7.253906 13.242188 L 7.253906 13.265625 L 7.277344 13.289062 L 7.277344 13.3125 L 7.324219 13.359375 L 7.324219 13.382812 L 7.347656 13.40625 L 7.347656 13.429688 L 7.394531 13.476562 L 7.394531 13.5 L 7.417969 13.523438 L 7.417969 13.546875 L 7.464844 13.59375 L 7.464844 13.617188 L 7.511719 13.664062 L 7.511719 13.6875 L 7.535156 13.710938 L 7.535156 13.734375 L 7.582031 13.78125 L 7.582031 13.804688 L 7.605469 13.828125 L 7.605469 13.851562 L 7.628906 13.875 L 7.628906 13.898438 L 7.675781 13.945312 L 7.675781 13.96875 L 7.699219 13.992188 L 7.699219 14.015625 L 7.746094 14.0625 L 7.746094 14.085938 L 7.769531 14.109375 L 7.769531 14.132812 L 7.816406 14.179688 L 7.816406 14.203125 L 7.839844 14.226562 L 7.839844 14.25 L 7.886719 14.296875 L 7.886719 14.320312 L 7.933594 14.367188 L 7.933594 14.390625 L 7.957031 14.414062 L 7.957031 14.4375 L 8.003906 14.484375 L 8.003906 14.507812 L 8.027344 14.53125 L 8.027344 14.554688 L 8.074219 14.601562 L 8.074219 14.625 L 8.097656 14.648438 L 8.097656 14.671875 L 8.144531 14.71875 L 8.144531 14.742188 L 8.167969 14.765625 L 8.167969 14.789062 L 8.214844 14.835938 L 8.214844 14.859375 L 8.238281 14.882812 L 8.238281 14.90625 L 8.285156 14.953125 L 8.285156 14.976562 L 8.332031 15.023438 L 8.332031 15.046875 L 8.355469 15.070312 L 8.355469 15.09375 L 8.378906 15.117188 L 8.378906 15.140625 L 8.425781 15.1875 L 8.425781 15.210938 L 8.472656 15.257812 L 8.472656 15.28125 L 8.496094 15.304688 L 8.496094 15.328125 L 8.542969 15.375 L 8.542969 15.398438 L 8.566406 15.421875 L 8.566406 15.445312 L 8.613281 15.492188 L 8.613281 15.515625 L 8.636719 15.539062 L 8.636719 15.5625 L 8.660156 15.585938 L 8.660156 15.609375 L 8.707031 15.65625 L 8.707031 15.679688 L 8.730469 15.703125 L 8.730469 15.726562 L 8.777344 15.773438 L 8.777344 15.796875 L 8.800781 15.820312 L 8.800781 15.84375 L 8.847656 15.890625 L 8.847656 15.914062 L 8.871094 15.9375 L 8.871094 15.960938 L 8.894531 15.984375 L 8.894531 16.007812 L 8.941406 16.054688 L 8.941406 16.078125 L 9.140625 16.277344 L 9.164062 16.277344 L 9.1875 16.300781 L 9.234375 16.300781 L 9.257812 16.324219 L 9.304688 16.324219 L 9.328125 16.347656 L 9.609375 16.347656 L 9.632812 16.324219 L 9.679688 16.324219 L 9.703125 16.300781 L 9.75 16.300781 L 9.925781 16.125 L 9.925781 16.101562 L 9.949219 16.078125 L 9.949219 16.054688 L 9.972656 16.03125 L 9.972656 15.984375 L 9.996094 15.960938 L 9.996094 15.914062 L 10.019531 15.890625 L 10.019531 15.820312 L 10.042969 15.796875 L 10.042969 15.75 L 10.066406 15.726562 L 10.066406 15.65625 L 10.089844 15.632812 L 10.089844 15.585938 L 10.113281 15.5625 L 10.113281 15.492188 L 10.136719 15.46875 L 10.136719 15.398438 L 10.160156 15.375 L 10.160156 15.328125 L 10.183594 15.304688 L 10.183594 15.234375 L 10.207031 15.210938 L 10.207031 15.164062 L 10.230469 15.140625 L 10.230469 15.070312 L 10.253906 15.046875 L 10.253906 15 L 10.277344 14.976562 L 10.277344 14.90625 L 10.300781 14.882812 L 10.300781 14.835938 L 10.324219 14.8125 L 10.324219 14.742188 L 10.347656 14.71875 L 10.347656 14.648438 L 10.371094 14.625 L 10.371094 14.578125 L 10.394531 14.554688 L 10.394531 14.507812 L 10.417969 14.484375 L 10.417969 14.414062 L 10.441406 14.390625 L 10.441406 14.34375 L 10.464844 14.320312 L 10.464844 14.25 L 10.488281 14.226562 L 10.488281 14.179688 L 10.511719 14.15625 L 10.511719 14.085938 L 10.535156 14.0625 L 10.535156 13.992188 L 10.558594 13.96875 L 10.558594 13.921875 L 10.582031 13.898438 L 10.582031 13.828125 L 10.605469 13.804688 L 10.605469 13.757812 L 10.628906 13.734375 L 10.628906 13.6875 L 10.652344 13.664062 L 10.652344 13.59375 L 10.675781 13.570312 L 10.675781 13.5 L 10.699219 13.476562 L 10.699219 13.429688 L 10.722656 13.40625 L 10.722656 13.359375 L 10.746094 13.335938 L 10.746094 13.265625 L 10.769531 13.242188 L 10.769531 13.171875 L 10.792969 13.148438 L 10.792969 13.101562 L 10.816406 13.078125 L 10.816406 13.007812 L 10.839844 12.984375 L 10.839844 12.9375 L 10.863281 12.914062 L 10.863281 12.84375 L 10.886719 12.820312 L 10.886719 12.75 L 10.910156 12.726562 L 10.910156 12.679688 L 10.933594 12.65625 L 10.933594 12.609375 L 10.957031 12.585938 L 10.957031 12.515625 L 10.980469 12.492188 L 10.980469 12.445312 L 11.003906 12.421875 L 11.003906 12.351562 L 11.027344 12.328125 L 11.027344 12.257812 L 11.050781 12.234375 L 11.050781 12.1875 L 11.074219 12.164062 L 11.074219 12.09375 L 11.097656 12.070312 L 11.097656 12 L 11.121094 11.976562 L 11.121094 11.929688 L 11.144531 11.90625 L 11.144531 11.859375 L 11.167969 11.835938 L 11.167969 11.765625 L 11.191406 11.742188 L 11.191406 11.695312 L 11.214844 11.671875 L 11.214844 11.601562 L 11.238281 11.578125 L 11.238281 11.53125 L 11.261719 11.507812 L 11.261719 11.4375 L 11.285156 11.414062 L 11.285156 11.34375 L 11.308594 11.320312 L 11.308594 11.273438 L 11.332031 11.25 L 11.332031 11.179688 L 11.355469 11.15625 L 11.355469 11.109375 L 11.378906 11.085938 L 11.378906 11.015625 L 11.402344 10.992188 L 11.402344 10.921875 L 11.425781 10.898438 L 11.425781 10.851562 L 11.449219 10.828125 L 11.449219 10.757812 L 11.472656 10.734375 L 11.472656 10.6875 L 11.496094 10.664062 L 11.496094 10.59375 L 11.519531 10.570312 L 11.519531 10.523438 L 11.542969 10.5 L 11.542969 10.429688 L 11.566406 10.40625 L 11.566406 10.335938 L 11.589844 10.3125 L 11.589844 10.265625 L 11.613281 10.242188 L 11.613281 10.171875 L 11.636719 10.148438 L 11.636719 10.101562 L 11.660156 10.078125 L 11.660156 10.007812 L 11.683594 9.984375 L 11.683594 9.9375 L 11.707031 9.914062 L 11.707031 9.84375 L 11.730469 9.820312 L 11.730469 9.773438 L 11.753906 9.75 L 11.753906 9.679688 L 11.777344 9.65625 L 11.777344 9.585938 L 11.800781 9.5625 L 11.800781 9.515625 L 11.824219 9.492188 L 11.824219 9.421875 L 11.847656 9.398438 L 11.847656 9.351562 L 11.871094 9.328125 L 11.871094 9.257812 L 11.894531 9.234375 L 11.894531 9.1875 L 11.917969 9.164062 L 11.917969 9.09375 L 11.941406 9.070312 L 11.941406 9.023438 L 11.964844 9 L 11.964844 8.929688 L 11.988281 8.90625 L 11.988281 8.859375 L 12.011719 8.835938 L 12.011719 8.789062 L 12.035156 8.765625 L 12.035156 8.695312 L 12.058594 8.671875 L 12.058594 8.601562 L 12.082031 8.578125 L 12.082031 8.53125 L 12.105469 8.507812 L 12.105469 8.4375 L 12.128906 8.414062 L 12.128906 8.367188 L 12.152344 8.34375 L 12.152344 8.273438 L 12.175781 8.25 L 12.175781 8.203125 L 12.199219 8.179688 L 12.199219 8.109375 L 12.222656 8.085938 L 12.222656 8.039062 L 12.246094 8.015625 L 12.246094 7.945312 L 12.269531 7.921875 L 12.269531 7.875 L 12.292969 7.851562 L 12.292969 7.78125 L 12.316406 7.757812 L 12.316406 7.710938 L 12.339844 7.6875 L 12.339844 7.617188 L 12.363281 7.59375 L 12.363281 7.546875 L 12.386719 7.523438 L 12.386719 7.453125 L 12.410156 7.429688 L 12.410156 7.382812 L 12.433594 7.359375 L 12.433594 7.289062 L 12.457031 7.265625 L 12.457031 7.21875 L 12.480469 7.195312 L 12.480469 7.125 L 12.503906 7.101562 L 12.503906 7.054688 L 12.527344 7.03125 L 12.527344 6.984375 L 12.550781 6.960938 L 12.550781 6.890625 L 12.574219 6.867188 L 12.574219 6.796875 L 12.597656 6.773438 L 12.597656 6.726562 L 12.621094 6.703125 L 12.621094 6.632812 L 12.644531 6.609375 L 12.644531 6.585938 L 12.667969 6.5625 L 12.667969 6.515625 L 12.714844 6.46875 L 12.714844 6.445312 L 12.738281 6.421875 L 12.738281 6.398438 L 12.867188 6.269531 L 12.890625 6.269531 L 12.960938 6.199219 L 12.984375 6.199219 L 13.007812 6.175781 L 13.03125 6.175781 L 13.054688 6.152344 L 13.101562 6.152344 L 13.125 6.128906 L 13.171875 6.128906 L 13.195312 6.105469 L 13.289062 6.105469 L 13.3125 6.082031 L 15.1875 6.082031 L 15.210938 6.105469 L 15.304688 6.105469 L 15.328125 6.128906 L 15.398438 6.128906 L 15.421875 6.152344 L 15.445312 6.152344 L 15.46875 6.175781 L 15.515625 6.175781 L 15.5625 6.222656 L 15.585938 6.222656 L 15.632812 6.269531 L 15.65625 6.269531 L 15.832031 6.445312 L 15.832031 6.46875 L 15.878906 6.515625 L 15.878906 6.539062 L 15.925781 6.585938 L 15.925781 6.609375 L 15.949219 6.632812 L 15.949219 6.65625 L 15.996094 6.703125 L 15.996094 6.726562 L 16.019531 6.75 L 16.019531 6.773438 L 16.042969 6.796875 L 16.042969 6.820312 L 16.089844 6.867188 L 16.089844 6.890625 L 16.136719 6.9375 L 16.136719 6.960938 L 16.160156 6.984375 L 16.160156 7.007812 L 16.207031 7.054688 L 16.207031 7.078125 L 16.230469 7.101562 L 16.230469 7.125 L 16.277344 7.171875 L 16.277344 7.195312 L 16.300781 7.21875 L 16.300781 7.242188 L 16.347656 7.289062 L 16.347656 7.3125 L 16.371094 7.335938 L 16.371094 7.359375 L 16.417969 7.40625 L 16.417969 7.429688 L 16.441406 7.453125 L 16.441406 7.476562 L 16.488281 7.523438 L 16.488281 7.546875 L 16.535156 7.59375 L 16.535156 7.617188 L 16.558594 7.640625 L 16.558594 7.664062 L 16.605469 7.710938 L 16.605469 7.734375 L 16.628906 7.757812 L 16.628906 7.78125 L 16.675781 7.828125 L 16.675781 7.851562 L 16.699219 7.875 L 16.699219 7.898438 L 16.746094 7.945312 L 16.746094 7.96875 L 16.769531 7.992188 L 16.769531 8.015625 L 16.816406 8.0625 L 16.816406 8.085938 L 16.839844 8.109375 L 16.839844 8.132812 L 16.886719 8.179688 L 16.886719 8.203125 L 16.910156 8.226562 L 16.910156 8.25 L 16.957031 8.296875 L 16.957031 8.320312 L 16.980469 8.34375 L 16.980469 8.367188 L 17.027344 8.414062 L 17.027344 8.4375 L 17.074219 8.484375 L 17.074219 8.507812 L 17.097656 8.53125 L 17.097656 8.554688 L 17.144531 8.601562 L 17.144531 8.625 L 17.167969 8.648438 L 17.167969 8.671875 L 17.214844 8.71875 L 17.214844 8.742188 L 17.238281 8.765625 L 17.238281 8.789062 L 17.285156 8.835938 L 17.285156 8.859375 L 17.332031 8.90625 L 17.332031 8.929688 L 17.355469 8.953125 L 17.355469 8.976562 L 17.402344 9.023438 L 17.402344 9.046875 L 17.425781 9.070312 L 17.425781 9.09375 L 17.472656 9.140625 L 17.472656 9.164062 L 17.496094 9.1875 L 17.496094 9.210938 L 17.542969 9.257812 L 17.542969 9.28125 L 17.566406 9.304688 L 17.566406 9.328125 L 17.613281 9.375 L 17.613281 9.398438 L 17.660156 9.445312 L 17.660156 9.46875 L 17.683594 9.492188 L 17.683594 9.515625 L 17.730469 9.5625 L 17.730469 9.585938 L 17.753906 9.609375 L 17.753906 9.632812 L 17.800781 9.679688 L 17.800781 9.703125 L 17.824219 9.726562 L 17.824219 9.75 L 17.871094 9.796875 L 17.871094 9.820312 L 17.917969 9.867188 L 17.917969 9.890625 L 17.941406 9.914062 L 17.941406 9.9375 L 17.964844 9.960938 L 17.964844 9.984375 L 18.011719 10.03125 L 18.011719 10.054688 L 18.058594 10.101562 L 18.058594 10.125 L 18.082031 10.148438 L 18.082031 10.171875 L 18.128906 10.21875 L 18.128906 10.242188 L 18.152344 10.265625 L 18.152344 10.289062 L 18.199219 10.335938 L 18.199219 10.359375 L 18.222656 10.382812 L 18.222656 10.40625 L 18.269531 10.453125 L 18.269531 10.476562 L 18.316406 10.523438 L 18.316406 10.546875 L 18.339844 10.570312 L 18.339844 10.59375 L 18.386719 10.640625 L 18.386719 10.664062 L 18.410156 10.6875 L 18.410156 10.710938 L 18.457031 10.757812 L 18.457031 10.78125 L 18.480469 10.804688 L 18.480469 10.828125 L 18.527344 10.875 L 18.527344 10.898438 L 18.550781 10.921875 L 18.550781 10.945312 L 18.597656 10.992188 L 18.597656 11.015625 L 18.621094 11.039062 L 18.621094 11.0625 L 18.667969 11.109375 L 18.667969 11.132812 L 18.691406 11.15625 L 18.691406 11.179688 L 18.738281 11.226562 L 18.738281 11.25 L 18.761719 11.273438 L 18.761719 11.296875 L 18.808594 11.34375 L 18.808594 11.367188 L 18.832031 11.390625 L 18.832031 11.414062 L 18.878906 11.460938 L 18.878906 11.484375 L 18.902344 11.507812 L 18.902344 11.53125 L 18.925781 11.554688 L 18.925781 11.578125 L 18.949219 11.601562 L 18.949219 11.625 L 18.972656 11.648438 L 18.972656 11.695312 L 18.996094 11.71875 L 18.996094 11.789062 L 19.019531 11.8125 L 19.019531 12.117188 L 18.996094 12.140625 L 18.996094 12.210938 L 18.972656 12.234375 L 18.972656 12.28125 L 18.949219 12.304688 L 18.949219 12.328125 L 18.925781 12.351562 L 18.925781 12.375 L 18.902344 12.398438 L 18.902344 12.421875 L 18.855469 12.46875 L 18.855469 12.492188 L 18.832031 12.515625 L 18.832031 12.539062 L 18.785156 12.585938 L 18.785156 12.609375 L 18.761719 12.632812 L 18.761719 12.65625 L 18.714844 12.703125 L 18.714844 12.726562 L 18.667969 12.773438 L 18.667969 12.796875 L 18.644531 12.820312 L 18.644531 12.84375 L 18.597656 12.890625 L 18.597656 12.914062 L 18.574219 12.9375 L 18.574219 12.960938 L 18.527344 13.007812 L 18.527344 13.03125 L 18.480469 13.078125 L 18.480469 13.101562 L 18.457031 13.125 L 18.457031 13.148438 L 18.410156 13.195312 L 18.410156 13.21875 L 18.386719 13.242188 L 18.386719 13.265625 L 18.339844 13.3125 L 18.339844 13.335938 L 18.292969 13.382812 L 18.292969 13.40625 L 18.269531 13.429688 L 18.269531 13.453125 L 18.222656 13.5 L 18.222656 13.523438 L 18.175781 13.570312 L 18.175781 13.59375 L 18.152344 13.617188 L 18.152344 13.640625 L 18.105469 13.6875 L 18.105469 13.710938 L 18.082031 13.734375 L 18.082031 13.757812 L 18.035156 13.804688 L 18.035156 13.828125 L 18.011719 13.851562 L 18.011719 13.875 L 17.964844 13.921875 L 17.964844 13.945312 L 17.941406 13.96875 L 17.941406 13.992188 L 17.894531 14.039062 L 17.894531 14.0625 L 17.847656 14.109375 L 17.847656 14.132812 L 17.824219 14.15625 L 17.824219 14.179688 L 17.777344 14.226562 L 17.777344 14.25 L 17.753906 14.273438 L 17.753906 14.296875 L 17.707031 14.34375 L 17.707031 14.367188 L 17.683594 14.390625 L 17.683594 14.414062 L 17.636719 14.460938 L 17.636719 14.484375 L 17.613281 14.507812 L 17.613281 14.53125 L 17.566406 14.578125 L 17.566406 14.601562 L 17.542969 14.625 L 17.542969 14.648438 L 17.496094 14.695312 L 17.496094 14.71875 L 17.472656 14.742188 L 17.472656 14.765625 L 17.425781 14.8125 L 17.425781 14.835938 L 17.402344 14.859375 L 17.402344 14.882812 L 17.355469 14.929688 L 17.355469 14.953125 L 17.308594 15 L 17.308594 15.023438 L 17.285156 15.046875 L 17.285156 15.070312 L 17.238281 15.117188 L 17.238281 15.140625 L 17.191406 15.1875 L 17.191406 15.210938 L 17.167969 15.234375 L 17.167969 15.257812 L 17.144531 15.28125 L 17.144531 15.304688 L 17.097656 15.351562 L 17.097656 15.375 L 17.050781 15.421875 L 17.050781 15.445312 L 17.027344 15.46875 L 17.027344 15.492188 L 16.980469 15.539062 L 16.980469 15.5625 L 16.957031 15.585938 L 16.957031 15.609375 L 16.910156 15.65625 L 16.910156 15.679688 L 16.886719 15.703125 L 16.886719 15.726562 L 16.839844 15.773438 L 16.839844 15.796875 L 16.816406 15.820312 L 16.816406 15.84375 L 16.769531 15.890625 L 16.769531 15.914062 L 16.722656 15.960938 L 16.722656 15.984375 L 16.699219 16.007812 L 16.699219 16.03125 L 16.652344 16.078125 L 16.652344 16.101562 L 16.628906 16.125 L 16.628906 16.148438 L 16.582031 16.195312 L 16.582031 16.21875 L 16.558594 16.242188 L 16.558594 16.265625 L 16.511719 16.3125 L 16.511719 16.335938 L 16.464844 16.382812 L 16.464844 16.40625 L 16.441406 16.429688 L 16.441406 16.453125 L 16.394531 16.5 L 16.394531 16.523438 L 16.371094 16.546875 L 16.371094 16.570312 L 16.324219 16.617188 L 16.324219 16.640625 L 16.277344 16.6875 L 16.277344 16.710938 L 16.253906 16.734375 L 16.253906 16.757812 L 16.207031 16.804688 L 16.207031 16.828125 L 16.160156 16.875 L 16.160156 16.898438 L 16.136719 16.921875 L 16.136719 16.945312 L 16.089844 16.992188 L 16.089844 17.015625 L 16.066406 17.039062 L 16.066406 17.0625 L 16.019531 17.109375 L 16.019531 17.132812 L 15.972656 17.179688 L 15.972656 17.203125 L 15.949219 17.226562 L 15.949219 17.25 L 15.902344 17.296875 L 15.902344 17.320312 L 15.855469 17.367188 L 15.855469 17.390625 L 15.785156 17.460938 L 15.785156 17.484375 L 15.679688 17.589844 L 15.65625 17.589844 L 15.609375 17.636719 L 15.585938 17.636719 L 15.539062 17.683594 L 15.515625 17.683594 L 15.492188 17.707031 L 15.445312 17.707031 L 15.421875 17.730469 L 15.375 17.730469 L 15.351562 17.753906 L 15.304688 17.753906 L 15.28125 17.777344 L 15.1875 17.777344 Z M 15.164062 17.800781 "/>
</g>
</svg>
