<?xml version="1.0" encoding="UTF-8"?>
<svg xmlns="http://www.w3.org/2000/svg" width="24" height="24" viewBox="0 0 24 24">
  <!-- Simplified Unhook logo - hook shape -->
  <path fill="#19E0D0" d="M12 2C6.48 2 2 6.48 2 12s4.48 10 10 10 10-4.48 10-10S17.52 2 12 2zm0 18c-4.41 0-8-3.59-8-8s3.59-8 8-8 8 3.59 8 8-3.59 8-8 8z"/>

  <!-- Hook curve -->
  <path fill="#19E0D0" d="M15 8c0-1.66-1.34-3-3-3s-3 1.34-3 3v2H8v-2c0-2.76 2.24-5 5-5s5 2.24 5 5v2h-1V8z"/>

  <!-- Hook line -->
  <path fill="#19E0D0" d="M8 10h8v2H8z"/>

  <!-- Connection point -->
  <circle fill="#19E0D0" cx="12" cy="14" r="2"/>
</svg>
