<svg width="16" height="16" viewBox="0 0 16 16" fill="none" xmlns="http://www.w3.org/2000/svg">
<path d="M11.1681 15H11.1448H11.1215H11.0982H11.0749H11.0516H11.0283H11.005H10.9817H10.9584H10.9351H10.9118H10.8885H10.8652H10.8419H10.8186H10.7953H10.772H10.7488H10.7255H10.7022H10.6789H10.6556H10.6323H10.609H10.5857H10.5624H10.5391H10.5158H10.4925H10.4692H10.4459H10.4226H10.3993H10.376H10.3527H10.3295H10.3062H10.2829H10.2596H10.2363H10.213H10.1897H10.1664H10.1431H10.1198H10.0965H10.0732H10.0499H10.0266H10.0033H9.98003H9.95674H9.93344H9.91015H9.88685H9.86356H9.84027H9.81697H9.79368H9.77038H9.74709H9.72379H9.7005H9.6772H9.65391H9.63062H9.60732H9.58403H9.56073H9.53744H9.51414H9.49085H9.46755H9.44426H9.42096H9.39767H9.37438H9.35108H9.32779H9.30449H9.2812H9.2579H9.23461L9.22296 14.986L9.21131 14.972H9.18802H9.16473H9.14143L9.12978 14.958L9.11814 14.944H9.09484L9.08319 14.93L9.07155 14.916H9.04825L9.03661 14.902L9.02496 14.888L9.01331 14.874L9.00166 14.86H8.97837L8.96672 14.846L8.95507 14.832L8.94343 14.818L8.93178 14.804L8.92013 14.79V14.762L8.90849 14.748L8.89684 14.734L8.88519 14.72L8.87354 14.706V14.678L8.8619 14.664L8.85025 14.65V14.622V14.594L8.8386 14.58L8.82695 14.566V14.538V14.51V14.482V14.454V14.426V14.398V14.37V14.342V14.314V14.286V14.258V14.23V14.202V14.174V14.146V14.118V14.09V14.062V14.034V14.006V13.978V13.95V13.922V13.894V13.866V13.838V13.81V13.782V13.754V13.726V13.698V13.67V13.642L8.8386 13.628L8.85025 13.614V13.586L8.8619 13.572L8.87354 13.558V13.53L8.88519 13.516L8.89684 13.502V13.474L8.90849 13.46L8.92013 13.446L8.93178 13.432L8.94343 13.418L8.95507 13.404L8.96672 13.39L8.97837 13.376L8.99002 13.362L9.00166 13.348H9.02496L9.03661 13.334L9.04825 13.32H9.07155L9.08319 13.306L9.09484 13.292H9.11814H9.14143H9.16473H9.18802L9.19967 13.278L9.21131 13.264H9.23461H9.2579H9.2812H9.30449H9.32779H9.35108H9.37438H9.39767H9.42096H9.44426H9.46755H9.49085H9.51414H9.53744H9.56073H9.58403H9.60732H9.63062H9.65391H9.6772H9.7005H9.72379H9.74709H9.77038H9.79368H9.81697H9.84027H9.86356H9.88685H9.91015H9.93344H9.95674H9.98003H10.0033H10.0266H10.0499H10.0732H10.0965H10.1198H10.1431H10.1664H10.1897H10.213H10.2363H10.2596H10.2829H10.3062H10.3295H10.3527H10.376H10.3993H10.4226H10.4459H10.4692H10.4925H10.5158H10.5391H10.5624L10.574 13.25L10.5857 13.236H10.609H10.6323H10.6556L10.6672 13.222L10.6789 13.208H10.7022H10.7255L10.7371 13.194L10.7488 13.18H10.772L10.7837 13.166L10.7953 13.152L10.807 13.138L10.8186 13.124H10.8419L10.8536 13.11L10.8652 13.096L10.8769 13.082L10.8885 13.068L10.9002 13.054L10.9118 13.04L10.9235 13.026L10.9351 13.012L10.9468 12.998L10.9584 12.984L10.97 12.97L10.9817 12.956L10.9933 12.942V12.914L11.005 12.9L11.0166 12.886L11.0283 12.872L11.0399 12.858V12.83L11.0516 12.816L11.0632 12.802V12.774L11.0749 12.76L11.0865 12.746L11.0982 12.732L11.1098 12.718V12.69L11.1215 12.676L11.1331 12.662V12.634L11.1448 12.62L11.1564 12.606L11.1681 12.592L11.1797 12.578V12.55L11.1913 12.536L11.203 12.522V12.494L11.2146 12.48L11.2263 12.466L11.2379 12.452L11.2496 12.438V12.41L11.2612 12.396L11.2729 12.382V12.354L11.2845 12.34L11.2962 12.326L11.3078 12.312L11.3195 12.298V12.27L11.3311 12.256L11.3428 12.242V12.214L11.3544 12.2L11.3661 12.186L11.3777 12.172L11.3894 12.158V12.13L11.401 12.116L11.4126 12.102V12.074L11.4243 12.06L11.4359 12.046L11.4476 12.032L11.4592 12.018V11.99L11.4709 11.976L11.4825 11.962L11.4942 11.948L11.5058 11.934V11.906L11.5175 11.892L11.5291 11.878V11.85L11.5408 11.836L11.5524 11.822L11.5641 11.808L11.5757 11.794V11.766L11.5874 11.752L11.599 11.738V11.71L11.6106 11.696L11.6223 11.682V11.654L11.6339 11.64L11.6456 11.626L11.6572 11.612L11.6689 11.598V11.57L11.6805 11.556L11.6922 11.542L11.7038 11.528L11.7155 11.514V11.486L11.7271 11.472L11.7388 11.458V11.43L11.7504 11.416L11.7621 11.402L11.7737 11.388L11.7854 11.374V11.346L11.797 11.332L11.8087 11.318V11.29L11.8203 11.276L11.8319 11.262L11.8436 11.248L11.8552 11.234V11.206L11.8669 11.192L11.8785 11.178L11.8902 11.164L11.9018 11.15V11.122L11.9135 11.108L11.9251 11.094V11.066L11.9368 11.052L11.9484 11.038L11.9601 11.024L11.9717 11.01V10.982L11.9834 10.968L11.995 10.954V10.926L12.0067 10.912L12.0183 10.898L12.0299 10.884L12.0416 10.87V10.842L12.0532 10.828L12.0649 10.814V10.786L12.0765 10.772L12.0882 10.758L12.0998 10.744L12.1115 10.73V10.702L12.1231 10.688L12.1348 10.674L12.1464 10.66L12.1581 10.646V10.618L12.1697 10.604L12.1814 10.59V10.562L12.193 10.548L12.2047 10.534L12.2163 10.52L12.228 10.506V10.478L12.2396 10.464L12.2512 10.45V10.422L12.2629 10.408L12.2745 10.394L12.2862 10.38L12.2978 10.366V10.338L12.3095 10.324L12.3211 10.31V10.282L12.3328 10.268L12.3444 10.254L12.3561 10.24L12.3677 10.226V10.198L12.3794 10.184L12.391 10.17V10.142L12.4027 10.128L12.4143 10.114L12.426 10.1L12.4376 10.086V10.058L12.4493 10.044L12.4609 10.03V10.002L12.4725 9.988L12.4842 9.974L12.4958 9.96L12.5075 9.946V9.918L12.5191 9.904L12.5308 9.89L12.5424 9.876L12.5541 9.862V9.834L12.5657 9.82L12.5774 9.806V9.778L12.589 9.764L12.6007 9.75L12.6123 9.736L12.624 9.722V9.694L12.6356 9.68L12.6473 9.666V9.638L12.6589 9.624L12.6705 9.61L12.6822 9.596L12.6938 9.582V9.554L12.7055 9.54L12.7171 9.526V9.498L12.7288 9.484L12.7404 9.47L12.7521 9.456L12.7637 9.442V9.414L12.7754 9.4L12.787 9.386V9.358L12.7987 9.344L12.8103 9.33L12.822 9.316L12.8336 9.302V9.274L12.8453 9.26L12.8569 9.246V9.218L12.8686 9.204L12.8802 9.19L12.8918 9.176L12.9035 9.162V9.134L12.9151 9.12L12.9268 9.106L12.9384 9.092L12.9501 9.078V9.05L12.9617 9.036L12.9734 9.022V8.994L12.985 8.98L12.9967 8.966L13.0083 8.952L13.02 8.938V8.91L13.0316 8.896L13.0433 8.882V8.854L13.0549 8.84L13.0666 8.826L13.0782 8.812L13.0898 8.798V8.77L13.1015 8.756L13.1131 8.742V8.714L13.1248 8.7L13.1364 8.686L13.1481 8.672L13.1597 8.658V8.63L13.1714 8.616L13.183 8.602L13.1947 8.588L13.2063 8.574V8.546L13.218 8.532L13.2296 8.518V8.49L13.2413 8.476L13.2529 8.462L13.2646 8.448L13.2762 8.434V8.406V8.378L13.2879 8.364L13.2995 8.35V8.322L13.3111 8.308L13.3228 8.294V8.266V8.238V8.21L13.3344 8.196L13.3461 8.182V8.154V8.126V8.098V8.07V8.042V8.014V7.986V7.958V7.93V7.902L13.3344 7.888L13.3228 7.874V7.846V7.818V7.79L13.3111 7.776L13.2995 7.762V7.734L13.2879 7.72L13.2762 7.706V7.678L13.2646 7.664L13.2529 7.65V7.622L13.2413 7.608L13.2296 7.594V7.566L13.218 7.552L13.2063 7.538V7.51L13.1947 7.496L13.183 7.482L13.1714 7.468L13.1597 7.454V7.426L13.1481 7.412L13.1364 7.398V7.37L13.1248 7.356L13.1131 7.342L13.1015 7.328L13.0898 7.314V7.286L13.0782 7.272L13.0666 7.258V7.23L13.0549 7.216L13.0433 7.202L13.0316 7.188L13.02 7.174V7.146L13.0083 7.132L12.9967 7.118L12.985 7.104L12.9734 7.09V7.062L12.9617 7.048L12.9501 7.034V7.006L12.9384 6.992L12.9268 6.978L12.9151 6.964L12.9035 6.95V6.922L12.8918 6.908L12.8802 6.894V6.866L12.8686 6.852L12.8569 6.838L12.8453 6.824L12.8336 6.81V6.782L12.822 6.768L12.8103 6.754V6.726L12.7987 6.712L12.787 6.698L12.7754 6.684L12.7637 6.67V6.642L12.7521 6.628L12.7404 6.614V6.586L12.7288 6.572L12.7171 6.558L12.7055 6.544L12.6938 6.53V6.502L12.6822 6.488L12.6705 6.474V6.446L12.6589 6.432L12.6473 6.418L12.6356 6.404L12.624 6.39V6.362L12.6123 6.348L12.6007 6.334V6.306L12.589 6.292L12.5774 6.278L12.5657 6.264L12.5541 6.25V6.222L12.5424 6.208L12.5308 6.194V6.166L12.5191 6.152L12.5075 6.138L12.4958 6.124L12.4842 6.11V6.082L12.4725 6.068L12.4609 6.054V6.026L12.4493 6.012L12.4376 5.998L12.426 5.984L12.4143 5.97V5.942L12.4027 5.928L12.391 5.914L12.3794 5.9L12.3677 5.886V5.858L12.3561 5.844L12.3444 5.83V5.802L12.3328 5.788L12.3211 5.774L12.3095 5.76L12.2978 5.746V5.718L12.2862 5.704L12.2745 5.69L12.2629 5.676L12.2512 5.662V5.634L12.2396 5.62L12.228 5.606V5.578L12.2163 5.564L12.2047 5.55L12.193 5.536L12.1814 5.522V5.494L12.1697 5.48L12.1581 5.466V5.438L12.1464 5.424L12.1348 5.41L12.1231 5.396L12.1115 5.382V5.354L12.0998 5.34L12.0882 5.326V5.298L12.0765 5.284L12.0649 5.27L12.0532 5.256L12.0416 5.242V5.214L12.0299 5.2L12.0183 5.186V5.158L12.0067 5.144L11.995 5.13L11.9834 5.116L11.9717 5.102V5.074L11.9601 5.06L11.9484 5.046L11.9368 5.032L11.9251 5.018V4.99L11.9135 4.976L11.9018 4.962V4.934L11.8902 4.92L11.8785 4.906V4.878L11.8669 4.864L11.8552 4.85L11.8436 4.836L11.8319 4.822V4.794L11.8203 4.78L11.8087 4.766L11.797 4.752L11.7854 4.738V4.71L11.7737 4.696L11.7621 4.682V4.654L11.7504 4.64L11.7388 4.626L11.7271 4.612L11.7155 4.598V4.57L11.7038 4.556L11.6922 4.542V4.514L11.6805 4.5L11.6689 4.486L11.6572 4.472L11.6456 4.458V4.43L11.6339 4.416L11.6223 4.402V4.374L11.6106 4.36L11.599 4.346L11.5874 4.332L11.5757 4.318V4.29L11.5641 4.276L11.5524 4.262V4.234L11.5408 4.22L11.5291 4.206L11.5175 4.192L11.5058 4.178V4.15L11.4942 4.136L11.4825 4.122V4.094L11.4709 4.08L11.4592 4.066L11.4476 4.052L11.4359 4.038V4.01L11.4243 3.996L11.4126 3.982L11.401 3.968L11.3894 3.954V3.926L11.3777 3.912L11.3661 3.898V3.87L11.3544 3.856L11.3428 3.842L11.3311 3.828L11.3195 3.814V3.786L11.3078 3.772L11.2962 3.758V3.73L11.2845 3.716L11.2729 3.702L11.2612 3.688L11.2496 3.674V3.646L11.2379 3.632L11.2263 3.618V3.59L11.2146 3.576L11.203 3.562L11.1913 3.548L11.1797 3.534V3.506L11.1681 3.492L11.1564 3.478L11.1448 3.464L11.1331 3.45V3.422L11.1215 3.408L11.1098 3.394V3.366L11.0982 3.352L11.0865 3.338L11.0749 3.324L11.0632 3.31V3.282L11.0516 3.268L11.0399 3.254V3.226L11.0283 3.212L11.0166 3.198V3.17L11.005 3.156L10.9933 3.142L10.9817 3.128L10.97 3.114V3.086L10.9584 3.072L10.9468 3.058L10.9351 3.044L10.9235 3.03V3.002L10.9118 2.988L10.9002 2.974L10.8885 2.96L10.8769 2.946L10.8652 2.932L10.8536 2.918V2.89L10.8419 2.876H10.8186L10.807 2.862L10.7953 2.848L10.7837 2.834L10.772 2.82L10.7604 2.806L10.7488 2.792L10.7371 2.778L10.7255 2.764H10.7022L10.6905 2.75L10.6789 2.736H10.6556H10.6323L10.6206 2.722L10.609 2.708H10.5857H10.5624L10.5507 2.694L10.5391 2.68H10.5158H10.4925H10.4692H10.4459H10.4226L10.411 2.666L10.3993 2.652H10.376H10.3527H10.3295H10.3062H10.2829H10.2596H10.2363H10.213H10.1897L10.178 2.666L10.1664 2.68H10.1431H10.1198H10.0965H10.0732L10.0616 2.694L10.0499 2.708H10.0266H10.0033L9.99168 2.722L9.98003 2.736H9.95674L9.94509 2.75L9.93344 2.764H9.91015L9.8985 2.778L9.88685 2.792L9.87521 2.806L9.86356 2.82L9.85191 2.834L9.84027 2.848L9.82862 2.862L9.81697 2.876L9.80532 2.89L9.79368 2.904L9.78203 2.918V2.946L9.77038 2.96L9.75874 2.974L9.74709 2.988L9.73544 3.002V3.03L9.72379 3.044L9.71215 3.058V3.086V3.114L9.7005 3.128L9.68885 3.142V3.17V3.198L9.6772 3.212L9.66556 3.226V3.254V3.282V3.31L9.65391 3.324L9.64226 3.338V3.366V3.394L9.63062 3.408L9.61897 3.422V3.45V3.478V3.506L9.60732 3.52L9.59567 3.534V3.562V3.59L9.58403 3.604L9.57238 3.618V3.646V3.674V3.702L9.56073 3.716L9.54908 3.73V3.758V3.786L9.53744 3.8L9.52579 3.814V3.842V3.87V3.898L9.51414 3.912L9.5025 3.926V3.954V3.982L9.49085 3.996L9.4792 4.01V4.038V4.066L9.46755 4.08L9.45591 4.094V4.122V4.15V4.178L9.44426 4.192L9.43261 4.206V4.234V4.262V4.29L9.42096 4.304L9.40932 4.318V4.346V4.374L9.39767 4.388L9.38602 4.402V4.43V4.458V4.486L9.37438 4.5L9.36273 4.514V4.542V4.57L9.35108 4.584L9.33943 4.598V4.626V4.654V4.682L9.32779 4.696L9.31614 4.71V4.738V4.766L9.30449 4.78L9.29285 4.794V4.822V4.85L9.2812 4.864L9.26955 4.878V4.906V4.934V4.962L9.2579 4.976L9.24626 4.99V5.018V5.046V5.074L9.23461 5.088L9.22296 5.102V5.13V5.158L9.21131 5.172L9.19967 5.186V5.214V5.242V5.27L9.18802 5.284L9.17637 5.298V5.326V5.354L9.16473 5.368L9.15308 5.382V5.41V5.438L9.14143 5.452L9.12978 5.466V5.494V5.522V5.55L9.11814 5.564L9.10649 5.578V5.606V5.634V5.662L9.09484 5.676L9.08319 5.69V5.718V5.746L9.07155 5.76L9.0599 5.774V5.802V5.83V5.858L9.04825 5.872L9.03661 5.886V5.914V5.942L9.02496 5.956L9.01331 5.97V5.998V6.026V6.054L9.00166 6.068L8.99002 6.082V6.11V6.138L8.97837 6.152L8.96672 6.166V6.194V6.222V6.25L8.95507 6.264L8.94343 6.278V6.306V6.334V6.362L8.93178 6.376L8.92013 6.39V6.418V6.446L8.90849 6.46L8.89684 6.474V6.502V6.53L8.88519 6.544L8.87354 6.558V6.586V6.614V6.642L8.8619 6.656L8.85025 6.67V6.698V6.726L8.8386 6.74L8.82695 6.754V6.782V6.81V6.838L8.81531 6.852L8.80366 6.866V6.894V6.922V6.95L8.79201 6.964L8.78037 6.978V7.006V7.034L8.76872 7.048L8.75707 7.062V7.09V7.118V7.146L8.74542 7.16L8.73378 7.174V7.202V7.23L8.72213 7.244L8.71048 7.258V7.286V7.314V7.342L8.69884 7.356L8.68719 7.37V7.398V7.426V7.454L8.67554 7.468L8.66389 7.482V7.51V7.538L8.65225 7.552L8.6406 7.566V7.594V7.622V7.65L8.62895 7.664L8.6173 7.678V7.706V7.734L8.60566 7.748L8.59401 7.762V7.79V7.818V7.846L8.58236 7.86L8.57072 7.874V7.902V7.93V7.958L8.55907 7.972L8.54742 7.986V8.014V8.042L8.53577 8.056L8.52413 8.07V8.098V8.126V8.154L8.51248 8.168L8.50083 8.182V8.21V8.238L8.48918 8.252L8.47754 8.266V8.294V8.322V8.35L8.46589 8.364L8.45424 8.378V8.406V8.434L8.4426 8.448L8.43095 8.462V8.49V8.518V8.546L8.4193 8.56L8.40765 8.574V8.602V8.63V8.658L8.39601 8.672L8.38436 8.686V8.714V8.742L8.37271 8.756L8.36106 8.77V8.798V8.826V8.854L8.34942 8.868L8.33777 8.882V8.91V8.938L8.32612 8.952L8.31448 8.966V8.994V9.022V9.05L8.30283 9.064L8.29118 9.078V9.106V9.134V9.162L8.27953 9.176L8.26789 9.19V9.218V9.246L8.25624 9.26L8.24459 9.274V9.302V9.33L8.23295 9.344L8.2213 9.358V9.386V9.414V9.442L8.20965 9.456L8.198 9.47V9.498V9.526L8.18636 9.54L8.17471 9.554V9.582V9.61V9.638L8.16306 9.652L8.15141 9.666V9.694V9.722V9.75L8.13977 9.764L8.12812 9.778V9.806V9.834L8.11647 9.848L8.10483 9.862V9.89V9.918V9.946L8.09318 9.96L8.08153 9.974V10.002V10.03V10.058L8.06988 10.072L8.05824 10.086V10.114V10.142L8.04659 10.156L8.03494 10.17V10.198V10.226V10.254L8.02329 10.268L8.01165 10.282V10.31V10.338L8 10.352L7.98835 10.366V10.394V10.422V10.45L7.97671 10.464L7.96506 10.478V10.506V10.534V10.562L7.95341 10.576L7.94176 10.59V10.618V10.646L7.93012 10.66L7.91847 10.674V10.702V10.73V10.758L7.90682 10.772L7.89517 10.786V10.814V10.842L7.88353 10.856L7.87188 10.87V10.898V10.926V10.954L7.86023 10.968L7.84859 10.982V11.01V11.038L7.83694 11.052L7.82529 11.066V11.094V11.122V11.15L7.81364 11.164L7.802 11.178V11.206V11.234L7.79035 11.248L7.7787 11.262V11.29V11.318V11.346L7.76705 11.36L7.75541 11.374V11.402V11.43L7.74376 11.444L7.73211 11.458V11.486V11.514V11.542L7.72047 11.556L7.70882 11.57V11.598V11.626V11.654L7.69717 11.668L7.68552 11.682V11.71V11.738L7.67388 11.752L7.66223 11.766V11.794V11.822V11.85L7.65058 11.864L7.63893 11.878V11.906V11.934L7.62729 11.948L7.61564 11.962V11.99V12.018V12.046L7.60399 12.06L7.59235 12.074V12.102V12.13L7.5807 12.144L7.56905 12.158V12.186V12.214V12.242L7.5574 12.256L7.54576 12.27V12.298V12.326V12.354L7.53411 12.368L7.52246 12.382V12.41V12.438L7.51081 12.452L7.49917 12.466V12.494V12.522V12.55L7.48752 12.564L7.47587 12.578V12.606V12.634L7.46423 12.648L7.45258 12.662V12.69V12.718V12.746L7.44093 12.76L7.42928 12.774V12.802V12.83L7.41764 12.844L7.40599 12.858V12.886V12.914V12.942L7.39434 12.956L7.3827 12.97V12.998V13.026L7.37105 13.04L7.3594 13.054V13.082V13.11V13.138L7.34775 13.152L7.33611 13.166V13.194V13.222L7.32446 13.236L7.31281 13.25V13.278V13.306V13.334L7.30116 13.348L7.28952 13.362V13.39V13.418V13.446L7.27787 13.46L7.26622 13.474V13.502V13.53L7.25458 13.544L7.24293 13.558V13.586V13.614V13.642L7.23128 13.656L7.21963 13.67V13.698V13.726L7.20799 13.74L7.19634 13.754V13.782V13.81V13.838L7.18469 13.852L7.17304 13.866V13.894V13.922V13.95L7.1614 13.964L7.14975 13.978V14.006V14.034L7.1381 14.048L7.12646 14.062V14.09V14.118L7.11481 14.132L7.10316 14.146V14.174V14.202V14.23L7.09151 14.244L7.07987 14.258V14.286V14.314L7.06822 14.328L7.05657 14.342V14.37V14.398L7.04492 14.412L7.03328 14.426V14.454L7.02163 14.468L7.00998 14.482L6.99834 14.496L6.98669 14.51V14.538L6.97504 14.552L6.96339 14.566L6.95175 14.58L6.9401 14.594L6.92845 14.608L6.91681 14.622L6.90516 14.636L6.89351 14.65V14.678L6.88186 14.692L6.87022 14.706L6.85857 14.72L6.84692 14.734L6.83527 14.748H6.81198L6.80033 14.762L6.78869 14.776L6.77704 14.79L6.76539 14.804H6.7421L6.73045 14.818L6.7188 14.832L6.70715 14.846L6.69551 14.86H6.67221L6.66057 14.874L6.64892 14.888H6.62562L6.61398 14.902L6.60233 14.916H6.57903H6.55574L6.54409 14.93L6.53245 14.944H6.50915H6.48586L6.47421 14.958L6.46256 14.972H6.43927H6.41597H6.39268H6.36938L6.35774 14.986L6.34609 15H6.3228H6.2995H6.27621H6.25291H6.22962H6.20632H6.18303H6.15973H6.13644H6.11314H6.08985H6.06656H6.04326H6.01997H5.99667H5.97338H5.95008H5.92679H5.90349H5.8802H5.85691H5.83361H5.81032H5.78702H5.76373H5.74043H5.71714H5.69384H5.67055H5.64725H5.62396H5.60067H5.57737H5.55408H5.53078H5.50749H5.48419H5.4609H5.4376H5.41431H5.39102H5.36772H5.34443H5.32113H5.29784H5.27454H5.25125H5.22795H5.20466H5.18136H5.15807H5.13478H5.11148H5.08819H5.06489H5.0416H5.0183H4.99501H4.97171H4.94842H4.92512H4.90183H4.87854L4.86689 14.986L4.85524 14.972H4.83195H4.80865H4.78536H4.76206H4.73877L4.72712 14.958L4.71547 14.944H4.69218H4.66888L4.65724 14.93L4.64559 14.916H4.6223H4.599L4.58735 14.902L4.57571 14.888H4.55241L4.54077 14.874L4.52912 14.86H4.50582L4.49418 14.846L4.48253 14.832H4.45923L4.44759 14.818L4.43594 14.804H4.41265L4.401 14.79L4.38935 14.776L4.3777 14.762L4.36606 14.748H4.34276L4.33111 14.734L4.31947 14.72L4.30782 14.706L4.29617 14.692L4.28453 14.678L4.27288 14.664L4.26123 14.65L4.24958 14.636L4.23794 14.622L4.22629 14.608L4.21464 14.594L4.20299 14.58L4.19135 14.566L4.1797 14.552L4.16805 14.538V14.51L4.15641 14.496L4.14476 14.482L4.13311 14.468L4.12146 14.454V14.426L4.10982 14.412L4.09817 14.398L4.08652 14.384L4.07488 14.37V14.342L4.06323 14.328L4.05158 14.314V14.286L4.03993 14.272L4.02829 14.258L4.01664 14.244L4.00499 14.23V14.202L3.99334 14.188L3.9817 14.174L3.97005 14.16L3.9584 14.146V14.118L3.94676 14.104L3.93511 14.09V14.062L3.92346 14.048L3.91181 14.034L3.90017 14.02L3.88852 14.006V13.978L3.87687 13.964L3.86522 13.95L3.85358 13.936L3.84193 13.922V13.894L3.83028 13.88L3.81864 13.866V13.838L3.80699 13.824L3.79534 13.81L3.78369 13.796L3.77205 13.782V13.754L3.7604 13.74L3.74875 13.726V13.698L3.7371 13.684L3.72546 13.67L3.71381 13.656L3.70216 13.642V13.614L3.69052 13.6L3.67887 13.586L3.66722 13.572L3.65557 13.558V13.53L3.64393 13.516L3.63228 13.502V13.474L3.62063 13.46L3.60898 13.446L3.59734 13.432L3.58569 13.418V13.39L3.57404 13.376L3.5624 13.362L3.55075 13.348L3.5391 13.334V13.306L3.52745 13.292L3.51581 13.278V13.25L3.50416 13.236L3.49251 13.222V13.194L3.48087 13.18L3.46922 13.166L3.45757 13.152L3.44592 13.138V13.11L3.43428 13.096L3.42263 13.082L3.41098 13.068L3.39933 13.054V13.026L3.38769 13.012L3.37604 12.998L3.36439 12.984L3.35275 12.97V12.942L3.3411 12.928L3.32945 12.914V12.886L3.3178 12.872L3.30616 12.858L3.29451 12.844L3.28286 12.83V12.802L3.27121 12.788L3.25957 12.774L3.24792 12.76L3.23627 12.746V12.718L3.22463 12.704L3.21298 12.69V12.662L3.20133 12.648L3.18968 12.634L3.17804 12.62L3.16639 12.606V12.578L3.15474 12.564L3.14309 12.55V12.522L3.13145 12.508L3.1198 12.494L3.10815 12.48L3.09651 12.466V12.438L3.08486 12.424L3.07321 12.41L3.06156 12.396L3.04992 12.382V12.354L3.03827 12.34L3.02662 12.326V12.298L3.01497 12.284L3.00333 12.27L2.99168 12.256L2.98003 12.242V12.214L2.96839 12.2L2.95674 12.186V12.158L2.94509 12.144L2.93344 12.13L2.9218 12.116L2.91015 12.102V12.074L2.8985 12.06L2.88686 12.046L2.87521 12.032L2.86356 12.018V11.99L2.85191 11.976L2.84027 11.962V11.934L2.82862 11.92L2.81697 11.906L2.80532 11.892L2.79368 11.878V11.85L2.78203 11.836L2.77038 11.822V11.794L2.75874 11.78L2.74709 11.766L2.73544 11.752L2.72379 11.738V11.71L2.71215 11.696L2.7005 11.682V11.654L2.68885 11.64L2.6772 11.626L2.66556 11.612L2.65391 11.598V11.57L2.64226 11.556L2.63062 11.542L2.61897 11.528L2.60732 11.514V11.486L2.59567 11.472L2.58403 11.458V11.43L2.57238 11.416L2.56073 11.402L2.54908 11.388L2.53744 11.374V11.346L2.52579 11.332L2.51414 11.318L2.5025 11.304L2.49085 11.29V11.262L2.4792 11.248L2.46755 11.234V11.206L2.45591 11.192L2.44426 11.178L2.43261 11.164L2.42097 11.15V11.122L2.40932 11.108L2.39767 11.094V11.066L2.38602 11.052L2.37438 11.038L2.36273 11.024L2.35108 11.01V10.982L2.33943 10.968L2.32779 10.954L2.31614 10.94L2.30449 10.926V10.898L2.29285 10.884L2.2812 10.87V10.842L2.26955 10.828L2.2579 10.814L2.24626 10.8L2.23461 10.786V10.758L2.22296 10.744L2.21131 10.73L2.19967 10.716L2.18802 10.702V10.674L2.17637 10.66L2.16473 10.646V10.618L2.15308 10.604L2.14143 10.59L2.12978 10.576L2.11814 10.562V10.534L2.10649 10.52L2.09484 10.506L2.08319 10.492L2.07155 10.478V10.45L2.0599 10.436L2.04825 10.422V10.394L2.03661 10.38L2.02496 10.366L2.01331 10.352L2.00166 10.338V10.31L1.99002 10.296L1.97837 10.282V10.254L1.96672 10.24L1.95507 10.226L1.94343 10.212L1.93178 10.198V10.17L1.92013 10.156L1.90849 10.142V10.114L1.89684 10.1L1.88519 10.086L1.87354 10.072L1.8619 10.058V10.03L1.85025 10.016L1.8386 10.002L1.82696 9.988L1.81531 9.974V9.946L1.80366 9.932L1.79201 9.918V9.89L1.78037 9.876L1.76872 9.862L1.75707 9.848L1.74542 9.834V9.806L1.73378 9.792L1.72213 9.778V9.75L1.71048 9.736L1.69884 9.722L1.68719 9.708L1.67554 9.694V9.666L1.66389 9.652L1.65225 9.638L1.6406 9.624L1.62895 9.61V9.582L1.6173 9.568L1.60566 9.554L1.59401 9.54L1.58236 9.526V9.498L1.57072 9.484L1.55907 9.47V9.442L1.54742 9.428L1.53577 9.414L1.52413 9.4L1.51248 9.386V9.358L1.50083 9.344L1.48918 9.33L1.47754 9.316L1.46589 9.302V9.274L1.45424 9.26L1.4426 9.246V9.218L1.43095 9.204L1.4193 9.19L1.40765 9.176L1.39601 9.162V9.134L1.38436 9.12L1.37271 9.106V9.078L1.36106 9.064L1.34942 9.05L1.33777 9.036L1.32612 9.022V8.994L1.31448 8.98L1.30283 8.966L1.29118 8.952L1.27953 8.938V8.91L1.26789 8.896L1.25624 8.882V8.854L1.24459 8.84L1.23295 8.826L1.2213 8.812L1.20965 8.798V8.77L1.198 8.756L1.18636 8.742L1.17471 8.728L1.16306 8.714V8.686L1.15141 8.672L1.13977 8.658V8.63L1.12812 8.616L1.11647 8.602V8.574L1.10483 8.56L1.09318 8.546V8.518L1.08153 8.504L1.06988 8.49V8.462L1.05824 8.448L1.04659 8.434V8.406V8.378V8.35L1.03494 8.336L1.02329 8.322V8.294V8.266V8.238L1.01165 8.224L1 8.21V8.182V8.154V8.126V8.098V8.07V8.042V8.014V7.986V7.958V7.93V7.902L1.01165 7.888L1.02329 7.874V7.846V7.818V7.79V7.762L1.03494 7.748L1.04659 7.734V7.706V7.678L1.05824 7.664L1.06988 7.65V7.622L1.08153 7.608L1.09318 7.594V7.566L1.10483 7.552L1.11647 7.538V7.51L1.12812 7.496L1.13977 7.482V7.454L1.15141 7.44L1.16306 7.426V7.398L1.17471 7.384L1.18636 7.37V7.342L1.198 7.328L1.20965 7.314L1.2213 7.3L1.23295 7.286V7.258L1.24459 7.244L1.25624 7.23L1.26789 7.216L1.27953 7.202V7.174L1.29118 7.16L1.30283 7.146L1.31448 7.132L1.32612 7.118V7.09L1.33777 7.076L1.34942 7.062V7.034L1.36106 7.02L1.37271 7.006L1.38436 6.992L1.39601 6.978V6.95L1.40765 6.936L1.4193 6.922V6.894L1.43095 6.88L1.4426 6.866L1.45424 6.852L1.46589 6.838V6.81L1.47754 6.796L1.48918 6.782V6.754L1.50083 6.74L1.51248 6.726L1.52413 6.712L1.53577 6.698V6.67L1.54742 6.656L1.55907 6.642L1.57072 6.628L1.58236 6.614V6.586L1.59401 6.572L1.60566 6.558V6.53L1.6173 6.516L1.62895 6.502L1.6406 6.488L1.65225 6.474V6.446L1.66389 6.432L1.67554 6.418V6.39L1.68719 6.376L1.69884 6.362L1.71048 6.348L1.72213 6.334V6.306L1.73378 6.292L1.74542 6.278L1.75707 6.264L1.76872 6.25V6.222L1.78037 6.208L1.79201 6.194V6.166L1.80366 6.152L1.81531 6.138L1.82696 6.124L1.8386 6.11V6.082L1.85025 6.068L1.8619 6.054V6.026L1.87354 6.012L1.88519 5.998L1.89684 5.984L1.90849 5.97V5.942L1.92013 5.928L1.93178 5.914L1.94343 5.9L1.95507 5.886V5.858L1.96672 5.844L1.97837 5.83V5.802L1.99002 5.788L2.00166 5.774L2.01331 5.76L2.02496 5.746V5.718L2.03661 5.704L2.04825 5.69V5.662L2.0599 5.648L2.07155 5.634L2.08319 5.62L2.09484 5.606V5.578L2.10649 5.564L2.11814 5.55V5.522L2.12978 5.508L2.14143 5.494L2.15308 5.48L2.16473 5.466V5.438L2.17637 5.424L2.18802 5.41L2.19967 5.396L2.21131 5.382V5.354L2.22296 5.34L2.23461 5.326V5.298L2.24626 5.284L2.2579 5.27L2.26955 5.256L2.2812 5.242V5.214L2.29285 5.2L2.30449 5.186L2.31614 5.172L2.32779 5.158V5.13L2.33943 5.116L2.35108 5.102V5.074L2.36273 5.06L2.37438 5.046V5.018L2.38602 5.004L2.39767 4.99L2.40932 4.976L2.42097 4.962V4.934L2.43261 4.92L2.44426 4.906L2.45591 4.892L2.46755 4.878V4.85L2.4792 4.836L2.49085 4.822V4.794L2.5025 4.78L2.51414 4.766L2.52579 4.752L2.53744 4.738V4.71L2.54908 4.696L2.56073 4.682V4.654L2.57238 4.64L2.58403 4.626L2.59567 4.612L2.60732 4.598V4.57L2.61897 4.556L2.63062 4.542L2.64226 4.528L2.65391 4.514V4.486L2.66556 4.472L2.6772 4.458V4.43L2.68885 4.416L2.7005 4.402L2.71215 4.388L2.72379 4.374V4.346L2.73544 4.332L2.74709 4.318V4.29L2.75874 4.276L2.77038 4.262L2.78203 4.248L2.79368 4.234V4.206L2.80532 4.192L2.81697 4.178V4.15L2.82862 4.136L2.84027 4.122L2.85191 4.108L2.86356 4.094V4.066L2.87521 4.052L2.88686 4.038V4.01L2.8985 3.996L2.91015 3.982L2.9218 3.968L2.93344 3.954V3.926L2.94509 3.912L2.95674 3.898L2.96839 3.884L2.98003 3.87V3.842L2.99168 3.828L3.00333 3.814V3.786L3.01497 3.772L3.02662 3.758L3.03827 3.744L3.04992 3.73V3.702L3.06156 3.688L3.07321 3.674L3.08486 3.66L3.09651 3.646V3.618L3.10815 3.604L3.1198 3.59V3.562L3.13145 3.548L3.14309 3.534L3.15474 3.52L3.16639 3.506V3.478L3.17804 3.464L3.18968 3.45V3.422L3.20133 3.408L3.21298 3.394L3.22463 3.38L3.23627 3.366V3.338L3.24792 3.324L3.25957 3.31V3.282L3.27121 3.268L3.28286 3.254L3.29451 3.24L3.30616 3.226V3.198L3.3178 3.184L3.32945 3.17L3.3411 3.156L3.35275 3.142V3.114L3.36439 3.1L3.37604 3.086L3.38769 3.072L3.39933 3.058V3.03L3.41098 3.016L3.42263 3.002V2.974L3.43428 2.96L3.44592 2.946L3.45757 2.932L3.46922 2.918V2.89L3.48087 2.876L3.49251 2.862V2.834L3.50416 2.82L3.51581 2.806L3.52745 2.792L3.5391 2.778V2.75L3.55075 2.736L3.5624 2.722V2.694L3.57404 2.68L3.58569 2.666L3.59734 2.652L3.60898 2.638V2.61L3.62063 2.596L3.63228 2.582L3.64393 2.568L3.65557 2.554V2.526L3.66722 2.512L3.67887 2.498V2.47L3.69052 2.456L3.70216 2.442L3.71381 2.428L3.72546 2.414V2.386L3.7371 2.372L3.74875 2.358V2.33L3.7604 2.316L3.77205 2.302L3.78369 2.288L3.79534 2.274V2.246L3.80699 2.232L3.81864 2.218L3.83028 2.204L3.84193 2.19V2.162L3.85358 2.148L3.86522 2.134V2.106L3.87687 2.092L3.88852 2.078L3.90017 2.064L3.91181 2.05V2.022L3.92346 2.008L3.93511 1.994V1.966L3.94676 1.952L3.9584 1.938L3.97005 1.924L3.9817 1.91V1.882L3.99334 1.868L4.00499 1.854V1.826L4.01664 1.812L4.02829 1.798L4.03993 1.784L4.05158 1.77V1.742L4.06323 1.728L4.07488 1.714L4.08652 1.7L4.09817 1.686V1.658L4.10982 1.644L4.12146 1.63V1.602L4.13311 1.588L4.14476 1.574V1.546L4.15641 1.532L4.16805 1.518L4.1797 1.504L4.19135 1.49V1.462L4.20299 1.448L4.21464 1.434L4.22629 1.42L4.23794 1.406L4.24958 1.392L4.26123 1.378L4.27288 1.364L4.28453 1.35L4.29617 1.336L4.30782 1.322L4.31947 1.308L4.33111 1.294L4.34276 1.28L4.35441 1.266L4.36606 1.252L4.3777 1.238L4.38935 1.224H4.41265L4.42429 1.21L4.43594 1.196L4.44759 1.182L4.45923 1.168H4.48253L4.49418 1.154L4.50582 1.14H4.52912L4.54077 1.126L4.55241 1.112H4.57571L4.58735 1.098L4.599 1.084H4.6223L4.63394 1.07L4.64559 1.056H4.66888H4.69218L4.70383 1.042L4.71547 1.028H4.73877H4.76206H4.78536H4.80865H4.83195L4.84359 1.014L4.85524 1H4.87854H4.90183H4.92512H4.94842H4.97171H4.99501H5.0183H5.0416H5.06489H5.08819H5.11148H5.13478H5.15807H5.18136H5.20466H5.22795H5.25125H5.27454H5.29784H5.32113H5.34443H5.36772H5.39102H5.41431H5.4376H5.4609H5.48419H5.50749H5.53078H5.55408H5.57737H5.60067H5.62396H5.64725H5.67055H5.69384H5.71714H5.74043H5.76373H5.78702H5.81032H5.83361H5.85691H5.8802H5.90349H5.92679H5.95008H5.97338H5.99667H6.01997H6.04326H6.06656H6.08985H6.11314H6.13644H6.15973H6.18303H6.20632H6.22962H6.25291H6.27621H6.2995H6.3228H6.34609H6.36938H6.39268H6.41597H6.43927H6.46256H6.48586H6.50915H6.53245H6.55574H6.57903H6.60233H6.62562H6.64892H6.67221H6.69551H6.7188H6.7421H6.76539H6.78869H6.81198H6.83527L6.84692 1.014L6.85857 1.028H6.88186H6.90516L6.91681 1.042L6.92845 1.056H6.95175L6.96339 1.07L6.97504 1.084H6.99834L7.00998 1.098L7.02163 1.112L7.03328 1.126L7.04492 1.14L7.05657 1.154L7.06822 1.168L7.07987 1.182L7.09151 1.196L7.10316 1.21L7.11481 1.224L7.12646 1.238V1.266L7.1381 1.28L7.14975 1.294V1.322L7.1614 1.336L7.17304 1.35V1.378V1.406V1.434V1.462L7.18469 1.476L7.19634 1.49V1.518L7.18469 1.532L7.17304 1.546V1.574V1.602V1.63V1.658V1.686V1.714V1.742V1.77V1.798V1.826V1.854V1.882V1.91V1.938V1.966V1.994V2.022V2.05V2.078V2.106V2.134V2.162V2.19V2.218V2.246V2.274V2.302V2.33V2.358L7.1614 2.372L7.14975 2.386V2.414L7.1381 2.428L7.12646 2.442V2.47L7.11481 2.484L7.10316 2.498L7.09151 2.512L7.07987 2.526L7.06822 2.54L7.05657 2.554L7.04492 2.568L7.03328 2.582L7.02163 2.596L7.00998 2.61L6.99834 2.624H6.97504L6.96339 2.638L6.95175 2.652H6.92845L6.91681 2.666L6.90516 2.68H6.88186H6.85857H6.83527H6.81198H6.78869H6.76539H6.7421H6.7188H6.69551H6.67221H6.64892H6.62562H6.60233H6.57903H6.55574H6.53245H6.50915H6.48586H6.46256H6.43927H6.41597H6.39268H6.36938H6.34609H6.3228H6.2995H6.27621H6.25291H6.22962H6.20632H6.18303H6.15973H6.13644H6.11314H6.08985H6.06656H6.04326H6.01997H5.99667H5.97338H5.95008H5.92679H5.90349H5.8802H5.85691H5.83361H5.81032H5.78702H5.76373H5.74043H5.71714H5.69384H5.67055H5.64725H5.62396H5.60067H5.57737H5.55408H5.53078H5.50749H5.48419L5.47255 2.694L5.4609 2.708H5.4376H5.41431L5.40266 2.722L5.39102 2.736H5.36772L5.35607 2.75L5.34443 2.764H5.32113L5.30948 2.778L5.29784 2.792H5.27454L5.2629 2.806L5.25125 2.82L5.2396 2.834L5.22795 2.848L5.21631 2.862L5.20466 2.876L5.19301 2.89L5.18136 2.904L5.16972 2.918L5.15807 2.932L5.14642 2.946V2.974L5.13478 2.988L5.12313 3.002L5.11148 3.016L5.09983 3.03V3.058L5.08819 3.072L5.07654 3.086L5.06489 3.1L5.05324 3.114V3.142L5.0416 3.156L5.02995 3.17V3.198L5.0183 3.212L5.00666 3.226V3.254L4.99501 3.268L4.98336 3.282L4.97171 3.296L4.96007 3.31V3.338L4.94842 3.352L4.93677 3.366V3.394L4.92512 3.408L4.91348 3.422L4.90183 3.436L4.89018 3.45V3.478L4.87854 3.492L4.86689 3.506V3.534L4.85524 3.548L4.84359 3.562L4.83195 3.576L4.8203 3.59V3.618L4.80865 3.632L4.797 3.646L4.78536 3.66L4.77371 3.674V3.702L4.76206 3.716L4.75042 3.73V3.758L4.73877 3.772L4.72712 3.786L4.71547 3.8L4.70383 3.814V3.842L4.69218 3.856L4.68053 3.87L4.66888 3.884L4.65724 3.898V3.926L4.64559 3.94L4.63394 3.954V3.982L4.6223 3.996L4.61065 4.01L4.599 4.024L4.58735 4.038V4.066L4.57571 4.08L4.56406 4.094V4.122L4.55241 4.136L4.54077 4.15L4.52912 4.164L4.51747 4.178V4.206L4.50582 4.22L4.49418 4.234V4.262L4.48253 4.276L4.47088 4.29L4.45923 4.304L4.44759 4.318V4.346L4.43594 4.36L4.42429 4.374L4.41265 4.388L4.401 4.402V4.43L4.38935 4.444L4.3777 4.458V4.486L4.36606 4.5L4.35441 4.514L4.34276 4.528L4.33111 4.542V4.57L4.31947 4.584L4.30782 4.598V4.626L4.29617 4.64L4.28453 4.654L4.27288 4.668L4.26123 4.682V4.71L4.24958 4.724L4.23794 4.738L4.22629 4.752L4.21464 4.766V4.794L4.20299 4.808L4.19135 4.822V4.85L4.1797 4.864L4.16805 4.878L4.15641 4.892L4.14476 4.906V4.934L4.13311 4.948L4.12146 4.962V4.99L4.10982 5.004L4.09817 5.018L4.08652 5.032L4.07488 5.046V5.074L4.06323 5.088L4.05158 5.102V5.13L4.03993 5.144L4.02829 5.158L4.01664 5.172L4.00499 5.186V5.214L3.99334 5.228L3.9817 5.242L3.97005 5.256L3.9584 5.27V5.298L3.94676 5.312L3.93511 5.326V5.354L3.92346 5.368L3.91181 5.382L3.90017 5.396L3.88852 5.41V5.438L3.87687 5.452L3.86522 5.466V5.494L3.85358 5.508L3.84193 5.522L3.83028 5.536L3.81864 5.55V5.578L3.80699 5.592L3.79534 5.606V5.634L3.78369 5.648L3.77205 5.662L3.7604 5.676L3.74875 5.69V5.718L3.7371 5.732L3.72546 5.746V5.774L3.71381 5.788L3.70216 5.802L3.69052 5.816L3.67887 5.83V5.858L3.66722 5.872L3.65557 5.886V5.914L3.64393 5.928L3.63228 5.942L3.62063 5.956L3.60898 5.97V5.998L3.59734 6.012L3.58569 6.026L3.57404 6.04L3.5624 6.054V6.082L3.55075 6.096L3.5391 6.11V6.138L3.52745 6.152L3.51581 6.166L3.50416 6.18L3.49251 6.194V6.222L3.48087 6.236L3.46922 6.25V6.278L3.45757 6.292L3.44592 6.306L3.43428 6.32L3.42263 6.334V6.362L3.41098 6.376L3.39933 6.39V6.418L3.38769 6.432L3.37604 6.446L3.36439 6.46L3.35275 6.474V6.502L3.3411 6.516L3.32945 6.53V6.558L3.3178 6.572L3.30616 6.586L3.29451 6.6L3.28286 6.614V6.642L3.27121 6.656L3.25957 6.67L3.24792 6.684L3.23627 6.698V6.726L3.22463 6.74L3.21298 6.754L3.20133 6.768L3.18968 6.782V6.81L3.17804 6.824L3.16639 6.838V6.866L3.15474 6.88L3.14309 6.894L3.13145 6.908L3.1198 6.922V6.95L3.10815 6.964L3.09651 6.978V7.006L3.08486 7.02L3.07321 7.034L3.06156 7.048L3.04992 7.062V7.09L3.03827 7.104L3.02662 7.118L3.01497 7.132L3.00333 7.146V7.174L2.99168 7.188L2.98003 7.202V7.23L2.96839 7.244L2.95674 7.258L2.94509 7.272L2.93344 7.286V7.314L2.9218 7.328L2.91015 7.342V7.37L2.8985 7.384L2.88686 7.398L2.87521 7.412L2.86356 7.426V7.454L2.85191 7.468L2.84027 7.482L2.82862 7.496L2.81697 7.51V7.538L2.80532 7.552L2.79368 7.566V7.594L2.78203 7.608L2.77038 7.622L2.75874 7.636L2.74709 7.65V7.678L2.73544 7.692L2.72379 7.706V7.734V7.762L2.71215 7.776L2.7005 7.79V7.818L2.68885 7.832L2.6772 7.846V7.874V7.902V7.93L2.66556 7.944L2.65391 7.958V7.986V8.014V8.042V8.07V8.098V8.126V8.154L2.66556 8.168L2.6772 8.182V8.21V8.238V8.266L2.68885 8.28L2.7005 8.294V8.322V8.35L2.71215 8.364L2.72379 8.378V8.406L2.73544 8.42L2.74709 8.434V8.462L2.75874 8.476L2.77038 8.49V8.518L2.78203 8.532L2.79368 8.546L2.80532 8.56L2.81697 8.574V8.602L2.82862 8.616L2.84027 8.63V8.658L2.85191 8.672L2.86356 8.686L2.87521 8.7L2.88686 8.714V8.742L2.8985 8.756L2.91015 8.77V8.798L2.9218 8.812L2.93344 8.826L2.94509 8.84L2.95674 8.854V8.882L2.96839 8.896L2.98003 8.91V8.938L2.99168 8.952L3.00333 8.966L3.01497 8.98L3.02662 8.994V9.022L3.03827 9.036L3.04992 9.05V9.078L3.06156 9.092L3.07321 9.106V9.134L3.08486 9.148L3.09651 9.162L3.10815 9.176L3.1198 9.19V9.218L3.13145 9.232L3.14309 9.246L3.15474 9.26L3.16639 9.274V9.302L3.17804 9.316L3.18968 9.33V9.358L3.20133 9.372L3.21298 9.386L3.22463 9.4L3.23627 9.414V9.442L3.24792 9.456L3.25957 9.47V9.498L3.27121 9.512L3.28286 9.526L3.29451 9.54L3.30616 9.554V9.582L3.3178 9.596L3.32945 9.61V9.638L3.3411 9.652L3.35275 9.666L3.36439 9.68L3.37604 9.694V9.722L3.38769 9.736L3.39933 9.75V9.778L3.41098 9.792L3.42263 9.806L3.43428 9.82L3.44592 9.834V9.862L3.45757 9.876L3.46922 9.89V9.918L3.48087 9.932L3.49251 9.946L3.50416 9.96L3.51581 9.974V10.002L3.52745 10.016L3.5391 10.03L3.55075 10.044L3.5624 10.058V10.086L3.57404 10.1L3.58569 10.114V10.142L3.59734 10.156L3.60898 10.17L3.62063 10.184L3.63228 10.198V10.226L3.64393 10.24L3.65557 10.254V10.282L3.66722 10.296L3.67887 10.31V10.338L3.69052 10.352L3.70216 10.366L3.71381 10.38L3.72546 10.394V10.422L3.7371 10.436L3.74875 10.45V10.478L3.7604 10.492L3.77205 10.506L3.78369 10.52L3.79534 10.534V10.562L3.80699 10.576L3.81864 10.59V10.618L3.83028 10.632L3.84193 10.646L3.85358 10.66L3.86522 10.674V10.702L3.87687 10.716L3.88852 10.73V10.758L3.90017 10.772L3.91181 10.786L3.92346 10.8L3.93511 10.814V10.842L3.94676 10.856L3.9584 10.87L3.97005 10.884L3.9817 10.898V10.926L3.99334 10.94L4.00499 10.954V10.982L4.01664 10.996L4.02829 11.01L4.03993 11.024L4.05158 11.038V11.066L4.06323 11.08L4.07488 11.094V11.122L4.08652 11.136L4.09817 11.15L4.10982 11.164L4.12146 11.178V11.206L4.13311 11.22L4.14476 11.234V11.262L4.15641 11.276L4.16805 11.29L4.1797 11.304L4.19135 11.318V11.346L4.20299 11.36L4.21464 11.374V11.402L4.22629 11.416L4.23794 11.43L4.24958 11.444L4.26123 11.458V11.486L4.27288 11.5L4.28453 11.514V11.542L4.29617 11.556L4.30782 11.57L4.31947 11.584L4.33111 11.598V11.626L4.34276 11.64L4.35441 11.654L4.36606 11.668L4.3777 11.682V11.71L4.38935 11.724L4.401 11.738V11.766L4.41265 11.78L4.42429 11.794V11.822L4.43594 11.836L4.44759 11.85L4.45923 11.864L4.47088 11.878V11.906L4.48253 11.92L4.49418 11.934L4.50582 11.948L4.51747 11.962V11.99L4.52912 12.004L4.54077 12.018V12.046L4.55241 12.06L4.56406 12.074L4.57571 12.088L4.58735 12.102V12.13L4.599 12.144L4.61065 12.158V12.186L4.6223 12.2L4.63394 12.214L4.64559 12.228L4.65724 12.242V12.27L4.66888 12.284L4.68053 12.298V12.326L4.69218 12.34L4.70383 12.354V12.382L4.71547 12.396L4.72712 12.41L4.73877 12.424L4.75042 12.438V12.466L4.76206 12.48L4.77371 12.494V12.522L4.78536 12.536L4.797 12.55L4.80865 12.564L4.8203 12.578V12.606L4.83195 12.62L4.84359 12.634V12.662L4.85524 12.676L4.86689 12.69L4.87854 12.704L4.89018 12.718V12.746L4.90183 12.76L4.91348 12.774V12.802L4.92512 12.816L4.93677 12.83V12.858L4.94842 12.872L4.96007 12.886L4.97171 12.9L4.98336 12.914V12.942L4.99501 12.956L5.00666 12.97L5.0183 12.984L5.02995 12.998L5.0416 13.012L5.05324 13.026L5.06489 13.04L5.07654 13.054L5.08819 13.068L5.09983 13.082L5.11148 13.096L5.12313 13.11L5.13478 13.124L5.14642 13.138L5.15807 13.152L5.16972 13.166L5.18136 13.18H5.20466L5.21631 13.194L5.22795 13.208H5.25125H5.27454L5.28619 13.222L5.29784 13.236H5.32113H5.34443L5.35607 13.25L5.36772 13.264H5.39102H5.41431H5.4376H5.4609H5.48419H5.50749H5.53078H5.55408H5.57737H5.60067H5.62396H5.64725L5.6589 13.25L5.67055 13.236H5.69384H5.71714L5.72879 13.222L5.74043 13.208H5.76373H5.78702L5.79867 13.194L5.81032 13.18L5.82196 13.166L5.83361 13.152L5.84526 13.138L5.85691 13.124L5.86855 13.11L5.8802 13.096L5.89185 13.082L5.90349 13.068L5.91514 13.054L5.92679 13.04L5.93844 13.026L5.95008 13.012L5.96173 12.998V12.97L5.97338 12.956L5.98502 12.942V12.914L5.99667 12.9L6.00832 12.886V12.858V12.83L6.01997 12.816L6.03161 12.802V12.774V12.746L6.04326 12.732L6.05491 12.718V12.69V12.662V12.634L6.06656 12.62L6.0782 12.606V12.578V12.55L6.08985 12.536L6.1015 12.522V12.494V12.466V12.438L6.11314 12.424L6.12479 12.41V12.382V12.354L6.13644 12.34L6.14809 12.326V12.298V12.27V12.242L6.15973 12.228L6.17138 12.214V12.186V12.158V12.13L6.18303 12.116L6.19468 12.102V12.074V12.046L6.20632 12.032L6.21797 12.018V11.99V11.962V11.934L6.22962 11.92L6.24126 11.906V11.878V11.85L6.25291 11.836L6.26456 11.822V11.794V11.766V11.738L6.27621 11.724L6.28785 11.71V11.682V11.654L6.2995 11.64L6.31115 11.626V11.598V11.57V11.542L6.3228 11.528L6.33444 11.514V11.486V11.458L6.34609 11.444L6.35774 11.43V11.402V11.374V11.346L6.36938 11.332L6.38103 11.318V11.29V11.262V11.234L6.39268 11.22L6.40433 11.206V11.178V11.15L6.41597 11.136L6.42762 11.122V11.094V11.066L6.43927 11.052L6.45091 11.038V11.01V10.982V10.954L6.46256 10.94L6.47421 10.926V10.898V10.87L6.48586 10.856L6.4975 10.842V10.814V10.786V10.758L6.50915 10.744L6.5208 10.73V10.702V10.674L6.53245 10.66L6.54409 10.646V10.618V10.59V10.562L6.55574 10.548L6.56739 10.534V10.506V10.478V10.45L6.57903 10.436L6.59068 10.422V10.394V10.366L6.60233 10.352L6.61398 10.338V10.31V10.282V10.254L6.62562 10.24L6.63727 10.226V10.198V10.17L6.64892 10.156L6.66057 10.142V10.114V10.086L6.67221 10.072L6.68386 10.058V10.03V10.002V9.974L6.69551 9.96L6.70715 9.946V9.918V9.89V9.862L6.7188 9.848L6.73045 9.834V9.806V9.778L6.7421 9.764L6.75374 9.75V9.722V9.694L6.76539 9.68L6.77704 9.666V9.638V9.61V9.582L6.78869 9.568L6.80033 9.554V9.526V9.498V9.47L6.81198 9.456L6.82363 9.442V9.414V9.386L6.83527 9.372L6.84692 9.358V9.33V9.302V9.274L6.85857 9.26L6.87022 9.246V9.218V9.19L6.88186 9.176L6.89351 9.162V9.134V9.106V9.078L6.90516 9.064L6.91681 9.05V9.022V8.994V8.966L6.92845 8.952L6.9401 8.938V8.91V8.882L6.95175 8.868L6.96339 8.854V8.826V8.798L6.97504 8.784L6.98669 8.77V8.742V8.714V8.686L6.99834 8.672L7.00998 8.658V8.63V8.602L7.02163 8.588L7.03328 8.574V8.546V8.518V8.49L7.04492 8.476L7.05657 8.462V8.434V8.406V8.378L7.06822 8.364L7.07987 8.35V8.322V8.294L7.09151 8.28L7.10316 8.266V8.238V8.21V8.182L7.11481 8.168L7.12646 8.154V8.126V8.098V8.07L7.1381 8.056L7.14975 8.042V8.014V7.986L7.1614 7.972L7.17304 7.958V7.93V7.902L7.18469 7.888L7.19634 7.874V7.846V7.818V7.79L7.20799 7.776L7.21963 7.762V7.734V7.706L7.23128 7.692L7.24293 7.678V7.65V7.622V7.594L7.25458 7.58L7.26622 7.566V7.538V7.51L7.27787 7.496L7.28952 7.482V7.454V7.426V7.398L7.30116 7.384L7.31281 7.37V7.342V7.314V7.286L7.32446 7.272L7.33611 7.258V7.23V7.202L7.34775 7.188L7.3594 7.174V7.146V7.118V7.09L7.37105 7.076L7.3827 7.062V7.034V7.006L7.39434 6.992L7.40599 6.978V6.95V6.922V6.894L7.41764 6.88L7.42928 6.866V6.838V6.81V6.782L7.44093 6.768L7.45258 6.754V6.726V6.698L7.46423 6.684L7.47587 6.67V6.642V6.614V6.586L7.48752 6.572L7.49917 6.558V6.53V6.502L7.51081 6.488L7.52246 6.474V6.446V6.418V6.39L7.53411 6.376L7.54576 6.362V6.334V6.306L7.5574 6.292L7.56905 6.278V6.25V6.222V6.194L7.5807 6.18L7.59235 6.166V6.138V6.11V6.082L7.60399 6.068L7.61564 6.054V6.026V5.998L7.62729 5.984L7.63893 5.97V5.942V5.914V5.886L7.65058 5.872L7.66223 5.858V5.83V5.802L7.67388 5.788L7.68552 5.774V5.746V5.718V5.69L7.69717 5.676L7.70882 5.662V5.634V5.606L7.72047 5.592L7.73211 5.578V5.55V5.522V5.494L7.74376 5.48L7.75541 5.466V5.438V5.41L7.76705 5.396L7.7787 5.382V5.354V5.326V5.298L7.79035 5.284L7.802 5.27V5.242V5.214V5.186L7.81364 5.172L7.82529 5.158V5.13V5.102L7.83694 5.088L7.84859 5.074V5.046V5.018V4.99L7.86023 4.976L7.87188 4.962V4.934V4.906L7.88353 4.892L7.89517 4.878V4.85V4.822V4.794L7.90682 4.78L7.91847 4.766V4.738V4.71L7.93012 4.696L7.94176 4.682V4.654V4.626V4.598L7.95341 4.584L7.96506 4.57V4.542V4.514L7.97671 4.5L7.98835 4.486V4.458V4.43V4.402L8 4.388L8.01165 4.374V4.346V4.318L8.02329 4.304L8.03494 4.29V4.262V4.234L8.04659 4.22L8.05824 4.206V4.178V4.15V4.122L8.06988 4.108L8.08153 4.094V4.066V4.038V4.01L8.09318 3.996L8.10483 3.982V3.954V3.926L8.11647 3.912L8.12812 3.898V3.87V3.842V3.814L8.13977 3.8L8.15141 3.786V3.758V3.73L8.16306 3.716L8.17471 3.702V3.674V3.646V3.618L8.18636 3.604L8.198 3.59V3.562V3.534L8.20965 3.52L8.2213 3.506V3.478V3.45V3.422L8.23295 3.408L8.24459 3.394V3.366V3.338L8.25624 3.324L8.26789 3.31V3.282V3.254V3.226L8.27953 3.212L8.29118 3.198V3.17V3.142L8.30283 3.128L8.31448 3.114V3.086V3.058V3.03L8.32612 3.016L8.33777 3.002V2.974V2.946L8.34942 2.932L8.36106 2.918V2.89V2.862V2.834L8.37271 2.82L8.38436 2.806V2.778V2.75L8.39601 2.736L8.40765 2.722V2.694V2.666V2.638L8.4193 2.624L8.43095 2.61V2.582V2.554L8.4426 2.54L8.45424 2.526V2.498V2.47V2.442L8.46589 2.428L8.47754 2.414V2.386V2.358L8.48918 2.344L8.50083 2.33V2.302V2.274V2.246L8.51248 2.232L8.52413 2.218V2.19V2.162L8.53577 2.148L8.54742 2.134V2.106V2.078L8.55907 2.064L8.57072 2.05V2.022V1.994V1.966L8.58236 1.952L8.59401 1.938V1.91V1.882V1.854L8.60566 1.84L8.6173 1.826V1.798V1.77L8.62895 1.756L8.6406 1.742V1.714V1.686V1.658L8.65225 1.644L8.66389 1.63V1.602L8.67554 1.588L8.68719 1.574V1.546V1.518L8.69884 1.504L8.71048 1.49L8.72213 1.476L8.73378 1.462V1.434L8.74542 1.42L8.75707 1.406V1.378L8.76872 1.364L8.78037 1.35L8.79201 1.336L8.80366 1.322L8.81531 1.308L8.82695 1.294L8.8386 1.28L8.85025 1.266L8.8619 1.252L8.87354 1.238L8.88519 1.224H8.90849L8.92013 1.21L8.93178 1.196L8.94343 1.182L8.95507 1.168L8.96672 1.154L8.97837 1.14H9.00166L9.01331 1.126L9.02496 1.112H9.04825L9.0599 1.098L9.07155 1.084H9.09484H9.11814L9.12978 1.07L9.14143 1.056H9.16473H9.18802L9.19967 1.042L9.21131 1.028H9.23461H9.2579H9.2812H9.30449L9.31614 1.014L9.32779 1H9.35108H9.37438H9.39767H9.42096H9.44426H9.46755H9.49085H9.51414H9.53744H9.56073H9.58403H9.60732H9.63062H9.65391H9.6772H9.7005H9.72379H9.74709H9.77038H9.79368H9.81697H9.84027H9.86356H9.88685H9.91015H9.93344H9.95674H9.98003H10.0033H10.0266H10.0499H10.0732H10.0965H10.1198H10.1431H10.1664H10.1897H10.213H10.2363H10.2596H10.2829H10.3062H10.3295H10.3527H10.376H10.3993H10.4226H10.4459H10.4692H10.4925H10.5158H10.5391H10.5624H10.5857H10.609H10.6323H10.6556H10.6789H10.7022H10.7255H10.7488H10.772H10.7953H10.8186H10.8419H10.8652H10.8885H10.9118H10.9351H10.9584H10.9817H11.005H11.0283H11.0516H11.0749H11.0982H11.1215H11.1448H11.1681H11.1913L11.203 1.014L11.2146 1.028H11.2379H11.2612H11.2845H11.3078L11.3195 1.042L11.3311 1.056H11.3544H11.3777H11.401L11.4126 1.07L11.4243 1.084H11.4476L11.4592 1.098L11.4709 1.112H11.4942H11.5175L11.5291 1.126L11.5408 1.14L11.5524 1.154L11.5641 1.168H11.5874L11.599 1.182L11.6106 1.196L11.6223 1.21L11.6339 1.224H11.6572L11.6689 1.238L11.6805 1.252L11.6922 1.266L11.7038 1.28L11.7155 1.294L11.7271 1.308L11.7388 1.322L11.7504 1.336L11.7621 1.35L11.7737 1.364L11.7854 1.378L11.797 1.392L11.8087 1.406L11.8203 1.42L11.8319 1.434V1.462L11.8436 1.476L11.8552 1.49L11.8669 1.504L11.8785 1.518V1.546L11.8902 1.56L11.9018 1.574L11.9135 1.588L11.9251 1.602V1.63L11.9368 1.644L11.9484 1.658V1.686L11.9601 1.7L11.9717 1.714L11.9834 1.728L11.995 1.742V1.77L12.0067 1.784L12.0183 1.798V1.826L12.0299 1.84L12.0416 1.854V1.882L12.0532 1.896L12.0649 1.91L12.0765 1.924L12.0882 1.938V1.966L12.0998 1.98L12.1115 1.994L12.1231 2.008L12.1348 2.022V2.05L12.1464 2.064L12.1581 2.078V2.106L12.1697 2.12L12.1814 2.134L12.193 2.148L12.2047 2.162V2.19L12.2163 2.204L12.228 2.218V2.246L12.2396 2.26L12.2512 2.274L12.2629 2.288L12.2745 2.302V2.33L12.2862 2.344L12.2978 2.358V2.386L12.3095 2.4L12.3211 2.414L12.3328 2.428L12.3444 2.442V2.47L12.3561 2.484L12.3677 2.498V2.526L12.3794 2.54L12.391 2.554L12.4027 2.568L12.4143 2.582V2.61L12.426 2.624L12.4376 2.638V2.666L12.4493 2.68L12.4609 2.694L12.4725 2.708L12.4842 2.722V2.75L12.4958 2.764L12.5075 2.778L12.5191 2.792L12.5308 2.806V2.834L12.5424 2.848L12.5541 2.862V2.89L12.5657 2.904L12.5774 2.918L12.589 2.932L12.6007 2.946V2.974L12.6123 2.988L12.624 3.002V3.03L12.6356 3.044L12.6473 3.058L12.6589 3.072L12.6705 3.086V3.114L12.6822 3.128L12.6938 3.142V3.17L12.7055 3.184L12.7171 3.198L12.7288 3.212L12.7404 3.226V3.254L12.7521 3.268L12.7637 3.282V3.31L12.7754 3.324L12.787 3.338L12.7987 3.352L12.8103 3.366V3.394L12.822 3.408L12.8336 3.422V3.45L12.8453 3.464L12.8569 3.478L12.8686 3.492L12.8802 3.506V3.534L12.8918 3.548L12.9035 3.562V3.59L12.9151 3.604L12.9268 3.618L12.9384 3.632L12.9501 3.646V3.674L12.9617 3.688L12.9734 3.702V3.73L12.985 3.744L12.9967 3.758L13.0083 3.772L13.02 3.786V3.814L13.0316 3.828L13.0433 3.842L13.0549 3.856L13.0666 3.87V3.898L13.0782 3.912L13.0898 3.926V3.954L13.1015 3.968L13.1131 3.982L13.1248 3.996L13.1364 4.01V4.038L13.1481 4.052L13.1597 4.066V4.094L13.1714 4.108L13.183 4.122L13.1947 4.136L13.2063 4.15V4.178L13.218 4.192L13.2296 4.206V4.234L13.2413 4.248L13.2529 4.262L13.2646 4.276L13.2762 4.29V4.318L13.2879 4.332L13.2995 4.346L13.3111 4.36L13.3228 4.374V4.402L13.3344 4.416L13.3461 4.43V4.458L13.3577 4.472L13.3694 4.486L13.381 4.5L13.3927 4.514V4.542L13.4043 4.556L13.416 4.57V4.598L13.4276 4.612L13.4393 4.626L13.4509 4.64L13.4626 4.654V4.682L13.4742 4.696L13.4859 4.71V4.738L13.4975 4.752L13.5092 4.766L13.5208 4.78L13.5324 4.794V4.822L13.5441 4.836L13.5557 4.85V4.878L13.5674 4.892L13.579 4.906L13.5907 4.92L13.6023 4.934V4.962L13.614 4.976L13.6256 4.99L13.6373 5.004L13.6489 5.018V5.046L13.6606 5.06L13.6722 5.074V5.102L13.6839 5.116L13.6955 5.13L13.7072 5.144L13.7188 5.158V5.186L13.7304 5.2L13.7421 5.214V5.242L13.7537 5.256L13.7654 5.27L13.777 5.284L13.7887 5.298V5.326L13.8003 5.34L13.812 5.354V5.382L13.8236 5.396L13.8353 5.41L13.8469 5.424L13.8586 5.438V5.466L13.8702 5.48L13.8819 5.494L13.8935 5.508L13.9052 5.522V5.55L13.9168 5.564L13.9285 5.578V5.606L13.9401 5.62L13.9517 5.634V5.662L13.9634 5.676L13.975 5.69L13.9867 5.704L13.9983 5.718V5.746L14.01 5.76L14.0216 5.774L14.0333 5.788L14.0449 5.802V5.83L14.0566 5.844L14.0682 5.858V5.886L14.0799 5.9L14.0915 5.914L14.1032 5.928L14.1148 5.942V5.97L14.1265 5.984L14.1381 5.998V6.026L14.1498 6.04L14.1614 6.054L14.173 6.068L14.1847 6.082V6.11L14.1963 6.124L14.208 6.138V6.166L14.2196 6.18L14.2313 6.194L14.2429 6.208L14.2546 6.222V6.25L14.2662 6.264L14.2779 6.278L14.2895 6.292L14.3012 6.306V6.334L14.3128 6.348L14.3245 6.362V6.39L14.3361 6.404L14.3478 6.418L14.3594 6.432L14.371 6.446V6.474L14.3827 6.488L14.3943 6.502V6.53L14.406 6.544L14.4176 6.558L14.4293 6.572L14.4409 6.586V6.614L14.4526 6.628L14.4642 6.642V6.67L14.4759 6.684L14.4875 6.698L14.4992 6.712L14.5108 6.726V6.754L14.5225 6.768L14.5341 6.782V6.81L14.5458 6.824L14.5574 6.838L14.5691 6.852L14.5807 6.866V6.894L14.5923 6.908L14.604 6.922V6.95L14.6156 6.964L14.6273 6.978L14.6389 6.992L14.6506 7.006V7.034L14.6622 7.048L14.6739 7.062V7.09L14.6855 7.104L14.6972 7.118L14.7088 7.132L14.7205 7.146V7.174L14.7321 7.188L14.7438 7.202V7.23L14.7554 7.244L14.7671 7.258L14.7787 7.272L14.7903 7.286V7.314L14.802 7.328L14.8136 7.342V7.37L14.8253 7.384L14.8369 7.398L14.8486 7.412L14.8602 7.426V7.454L14.8719 7.468L14.8835 7.482V7.51L14.8952 7.524L14.9068 7.538V7.566L14.9185 7.58L14.9301 7.594V7.622L14.9418 7.636L14.9534 7.65V7.678V7.706L14.9651 7.72L14.9767 7.734V7.762V7.79V7.818L14.9884 7.832L15 7.846V7.874V7.902V7.93V7.958V7.986V8.014V8.042V8.07V8.098V8.126V8.154V8.182V8.21L14.9884 8.224L14.9767 8.238V8.266V8.294V8.322L14.9651 8.336L14.9534 8.35V8.378V8.406L14.9418 8.42L14.9301 8.434V8.462L14.9185 8.476L14.9068 8.49V8.518L14.8952 8.532L14.8835 8.546V8.574L14.8719 8.588L14.8602 8.602L14.8486 8.616L14.8369 8.63V8.658L14.8253 8.672L14.8136 8.686V8.714L14.802 8.728L14.7903 8.742L14.7787 8.756L14.7671 8.77V8.798L14.7554 8.812L14.7438 8.826V8.854L14.7321 8.868L14.7205 8.882L14.7088 8.896L14.6972 8.91V8.938L14.6855 8.952L14.6739 8.966L14.6622 8.98L14.6506 8.994V9.022L14.6389 9.036L14.6273 9.05V9.078L14.6156 9.092L14.604 9.106L14.5923 9.12L14.5807 9.134V9.162L14.5691 9.176L14.5574 9.19V9.218L14.5458 9.232L14.5341 9.246L14.5225 9.26L14.5108 9.274V9.302L14.4992 9.316L14.4875 9.33L14.4759 9.344L14.4642 9.358V9.386L14.4526 9.4L14.4409 9.414V9.442L14.4293 9.456L14.4176 9.47L14.406 9.484L14.3943 9.498V9.526L14.3827 9.54L14.371 9.554V9.582L14.3594 9.596L14.3478 9.61L14.3361 9.624L14.3245 9.638V9.666L14.3128 9.68L14.3012 9.694L14.2895 9.708L14.2779 9.722V9.75L14.2662 9.764L14.2546 9.778V9.806L14.2429 9.82L14.2313 9.834L14.2196 9.848L14.208 9.862V9.89L14.1963 9.904L14.1847 9.918L14.173 9.932L14.1614 9.946V9.974L14.1498 9.988L14.1381 10.002V10.03L14.1265 10.044L14.1148 10.058L14.1032 10.072L14.0915 10.086V10.114L14.0799 10.128L14.0682 10.142V10.17L14.0566 10.184L14.0449 10.198L14.0333 10.212L14.0216 10.226V10.254L14.01 10.268L13.9983 10.282V10.31L13.9867 10.324L13.975 10.338L13.9634 10.352L13.9517 10.366V10.394L13.9401 10.408L13.9285 10.422V10.45L13.9168 10.464L13.9052 10.478L13.8935 10.492L13.8819 10.506V10.534L13.8702 10.548L13.8586 10.562L13.8469 10.576L13.8353 10.59V10.618L13.8236 10.632L13.812 10.646V10.674L13.8003 10.688L13.7887 10.702L13.777 10.716L13.7654 10.73V10.758L13.7537 10.772L13.7421 10.786V10.814L13.7304 10.828L13.7188 10.842L13.7072 10.856L13.6955 10.87V10.898L13.6839 10.912L13.6722 10.926V10.954L13.6606 10.968L13.6489 10.982L13.6373 10.996L13.6256 11.01V11.038L13.614 11.052L13.6023 11.066V11.094L13.5907 11.108L13.579 11.122L13.5674 11.136L13.5557 11.15V11.178L13.5441 11.192L13.5324 11.206V11.234L13.5208 11.248L13.5092 11.262L13.4975 11.276L13.4859 11.29V11.318L13.4742 11.332L13.4626 11.346V11.374L13.4509 11.388L13.4393 11.402L13.4276 11.416L13.416 11.43V11.458L13.4043 11.472L13.3927 11.486V11.514L13.381 11.528L13.3694 11.542L13.3577 11.556L13.3461 11.57V11.598L13.3344 11.612L13.3228 11.626L13.3111 11.64L13.2995 11.654V11.682L13.2879 11.696L13.2762 11.71V11.738L13.2646 11.752L13.2529 11.766L13.2413 11.78L13.2296 11.794V11.822L13.218 11.836L13.2063 11.85L13.1947 11.864L13.183 11.878V11.906L13.1714 11.92L13.1597 11.934V11.962L13.1481 11.976L13.1364 11.99V12.018L13.1248 12.032L13.1131 12.046L13.1015 12.06L13.0898 12.074V12.102L13.0782 12.116L13.0666 12.13L13.0549 12.144L13.0433 12.158V12.186L13.0316 12.2L13.02 12.214V12.242L13.0083 12.256L12.9967 12.27L12.985 12.284L12.9734 12.298V12.326L12.9617 12.34L12.9501 12.354V12.382L12.9384 12.396L12.9268 12.41L12.9151 12.424L12.9035 12.438V12.466L12.8918 12.48L12.8802 12.494V12.522L12.8686 12.536L12.8569 12.55L12.8453 12.564L12.8336 12.578V12.606L12.822 12.62L12.8103 12.634V12.662L12.7987 12.676L12.787 12.69L12.7754 12.704L12.7637 12.718V12.746L12.7521 12.76L12.7404 12.774L12.7288 12.788L12.7171 12.802V12.83L12.7055 12.844L12.6938 12.858V12.886L12.6822 12.9L12.6705 12.914L12.6589 12.928L12.6473 12.942V12.97L12.6356 12.984L12.624 12.998V13.026L12.6123 13.04L12.6007 13.054L12.589 13.068L12.5774 13.082V13.11L12.5657 13.124L12.5541 13.138V13.166L12.5424 13.18L12.5308 13.194L12.5191 13.208L12.5075 13.222V13.25L12.4958 13.264L12.4842 13.278L12.4725 13.292L12.4609 13.306V13.334L12.4493 13.348L12.4376 13.362V13.39L12.426 13.404L12.4143 13.418L12.4027 13.432L12.391 13.446V13.474L12.3794 13.488L12.3677 13.502V13.53L12.3561 13.544L12.3444 13.558L12.3328 13.572L12.3211 13.586V13.614L12.3095 13.628L12.2978 13.642L12.2862 13.656L12.2745 13.67V13.698L12.2629 13.712L12.2512 13.726V13.754L12.2396 13.768L12.228 13.782L12.2163 13.796L12.2047 13.81V13.838L12.193 13.852L12.1814 13.866L12.1697 13.88L12.1581 13.894V13.922L12.1464 13.936L12.1348 13.95V13.978L12.1231 13.992L12.1115 14.006L12.0998 14.02L12.0882 14.034V14.062L12.0765 14.076L12.0649 14.09V14.118L12.0532 14.132L12.0416 14.146L12.0299 14.16L12.0183 14.174V14.202L12.0067 14.216L11.995 14.23L11.9834 14.244L11.9717 14.258V14.286L11.9601 14.3L11.9484 14.314V14.342L11.9368 14.356L11.9251 14.37L11.9135 14.384L11.9018 14.398V14.426L11.8902 14.44L11.8785 14.454L11.8669 14.468L11.8552 14.482V14.51L11.8436 14.524L11.8319 14.538L11.8203 14.552L11.8087 14.566L11.797 14.58L11.7854 14.594V14.622L11.7737 14.636L11.7621 14.65L11.7504 14.664L11.7388 14.678L11.7271 14.692L11.7155 14.706L11.7038 14.72L11.6922 14.734L11.6805 14.748H11.6572L11.6456 14.762L11.6339 14.776L11.6223 14.79L11.6106 14.804H11.5874L11.5757 14.818L11.5641 14.832L11.5524 14.846L11.5408 14.86H11.5175L11.5058 14.874L11.4942 14.888H11.4709H11.4476L11.4359 14.902L11.4243 14.916H11.401H11.3777L11.3661 14.93L11.3544 14.944H11.3311H11.3078L11.2962 14.958L11.2845 14.972H11.2612H11.2379H11.2146H11.1913L11.1797 14.986L11.1681 15Z" stroke="black"/>
</svg>
